<svg width="91" height="22" viewBox="0 0 91 22" fill="none" xmlns="http://www.w3.org/2000/svg">
<path d="M32.8385 6.06646C31.7856 6.06646 30.7592 6.33737 29.9433 6.83182C28.8248 7.49122 28.1404 8.53911 28.1667 9.57538C28.1536 11.4121 28.1536 14.7796 28.1536 15.8511H30.7067V12.2717L31.2066 12.4248C31.8909 12.6367 32.5753 12.7427 33.2332 12.7427C33.8781 12.7427 34.4703 12.6367 35.0098 12.4365C36.0494 12.0598 36.8522 11.2708 37.1943 10.3289C37.5102 9.29273 37.2601 8.19773 36.5495 7.47948C35.6546 6.58467 34.3123 6.06646 32.8385 6.06646ZM35.1809 9.78731V9.8108C34.9704 10.6468 34.1017 11.2119 32.9963 11.2119C31.9436 11.2119 31.0751 10.7056 30.7856 9.9285C30.654 9.59887 30.6803 9.24562 30.8777 8.91599C31.1146 8.492 31.5883 8.15062 32.1147 7.99755C32.3515 7.91507 32.6279 7.87984 32.9043 7.87984C33.628 7.87984 34.3387 8.15062 34.7598 8.57447C35.102 8.92773 35.2466 9.33984 35.1809 9.78731ZM39.6157 11.9067C40.5106 12.5896 41.7081 12.9546 42.9583 12.9546C43.2742 12.9546 43.5768 12.9311 43.8795 12.884H43.9585C44.8533 12.884 45.7745 12.8957 46.6561 12.8957H47.4326C47.4195 12.3659 47.4326 11.836 47.4326 11.3179C47.4326 10.6939 47.4326 10.0463 47.4195 9.42231C47.4195 8.69218 47.0116 7.92695 46.314 7.31466C45.4192 6.52568 44.1163 6.06646 42.7609 6.06646C41.6556 6.06646 40.6027 6.3726 39.7737 6.9143C38.8129 7.53833 38.2603 8.492 38.2997 9.41043V9.43406C38.2471 10.3289 38.7472 11.2473 39.6157 11.9067ZM40.4974 9.0102C40.7344 8.53911 41.2607 8.13888 41.8266 7.99755C42.0879 7.91165 42.3641 7.86778 42.6425 7.86796C43.7348 7.86796 44.8797 8.50388 44.9059 9.57538V9.62236C44.7875 10.3877 43.9979 11.2237 42.5767 11.2237C41.6556 11.2237 40.8659 10.8116 40.5106 10.1641C40.3132 9.82254 40.3132 9.39869 40.4974 9.0102ZM59.3947 15.8628H61.0793V14.344V12.2717L61.5793 12.4483C62.1978 12.6602 62.8821 12.778 63.5401 12.778C64.7903 12.778 65.8957 12.3894 66.6589 11.6948C67.8171 10.6704 68.0407 8.98658 67.1721 7.84448C66.3563 6.7376 64.8692 6.09008 63.1979 6.09008C62.3558 6.09008 61.5266 6.26664 60.816 6.59641C59.6449 7.11448 58.4868 8.25658 58.5395 9.62236C58.5526 10.5644 58.5526 11.5181 58.5395 12.4365C58.5262 13.5786 58.5131 14.7444 58.5526 15.8982C58.8026 15.8628 59.0659 15.8628 59.3947 15.8628ZM61.2766 8.90411C61.5399 8.45677 62.0399 8.10351 62.6058 7.98581C62.8316 7.92318 63.0668 7.89141 63.3032 7.89159C64.0007 7.89159 64.7114 8.15062 65.1456 8.57447C65.4877 8.91598 65.6588 9.32809 65.6062 9.77543V9.82254C65.3824 10.6704 64.5008 11.2356 63.3954 11.2356C62.3953 11.2356 61.5399 10.7646 61.2109 10.0345C61.0266 9.66947 61.066 9.26924 61.2766 8.90411ZM73.8442 12.0362C74.4758 12.4365 75.4892 12.9075 76.6735 12.9075H76.8577C77.4894 12.884 78.1606 12.8721 79.0291 12.8721H81.4636C81.4505 12.3031 81.4505 11.7339 81.4636 11.1648C81.4636 10.5879 81.4769 9.99924 81.4636 9.42231C81.4505 8.63333 80.9899 7.82085 80.2003 7.18508C79.3055 6.47857 78.0684 6.07834 76.7919 6.07834C75.6997 6.07834 74.6469 6.3726 73.8179 6.92604C72.8572 7.55007 72.2913 8.50388 72.3308 9.43406V9.45754C72.2913 10.3995 72.8703 11.3886 73.8442 12.0362ZM74.5416 9.02195C74.7785 8.53911 75.305 8.13888 75.8971 7.99755C76.134 7.91507 76.3971 7.87984 76.6868 7.87984C77.4105 7.87984 78.121 8.15062 78.5423 8.5981C78.8711 8.95122 79.0028 9.3752 78.9238 9.82254V9.84616C78.6212 10.8116 77.5684 11.2356 76.6472 11.2356C75.7261 11.2356 74.9364 10.8352 74.5811 10.1875C74.3443 9.82254 74.3443 9.41043 74.5416 9.02195ZM68.7908 12.8721C68.8041 11.2119 68.8041 9.52828 68.7908 7.90333V4.04128C69.304 4.02954 69.8041 4.02954 70.1858 4.02954H71.3439V7.58544C71.3307 9.31621 71.3308 11.106 71.357 12.8721H68.7908ZM53.1966 7.90333C52.5912 7.90333 52.0517 8.06815 51.6437 8.38603C51.3411 8.58622 50.9989 8.98658 51.0252 9.78731V12.9075H48.4458C48.4458 12.1775 48.4458 10.4113 48.4591 9.42231C48.4722 8.65695 48.9197 7.84448 49.6829 7.22044C50.5777 6.49045 51.8411 6.06646 53.1439 6.06646C53.3677 6.06646 53.5781 6.07834 53.7887 6.10182L53.8151 7.96218C53.6045 7.91507 53.4072 7.90333 53.1966 7.90333ZM54.9468 6.09008H57.4999V7.90333H54.9468V6.09008ZM88.0172 6.59641H90.1622V13.8377C89.9649 14.8974 89.2937 15.7805 88.3725 16.2161C87.4646 16.6636 86.3723 16.9109 85.1879 16.9109C84.8721 16.9109 84.5431 16.8991 84.2272 16.8637C84.2536 16.228 84.2404 15.6038 84.2272 15.0269C84.4676 15.0501 84.7092 15.0619 84.951 15.0622C85.9511 15.0622 86.7803 14.8386 87.4119 14.3911C88.0698 13.9554 88.0567 13.1783 88.0567 12.9311V12.5542L87.6357 12.6013L87.504 12.6131C87.1355 12.6484 86.767 12.6956 86.4117 12.6956C86.0959 12.6956 85.8327 12.6602 85.5827 12.6013H85.5563C84.1614 12.2952 83.0297 11.2237 82.727 9.9285C82.6085 9.50465 82.6349 7.80911 82.6743 6.60815H84.8984C84.8852 7.30278 84.8721 8.89236 84.9379 9.79905C84.9905 10.4585 85.688 11.0236 86.4512 11.0236C86.6092 11.0236 86.7538 11 86.8856 10.9529C87.5435 10.7646 88.0172 10.1875 88.0041 9.56351C88.0303 8.72755 88.0303 7.25581 88.0172 6.59641ZM54.9468 8.92773H57.4999V12.884H54.9468V8.92773Z" fill="#32448C"/>
<path d="M70.2111 4.10917H71.3692V7.66507C71.356 9.39585 71.356 11.1856 71.3823 12.9517H68.8293C68.8425 11.2916 68.8425 9.60791 68.8293 7.98296V4.12092C69.3162 4.10917 69.8163 4.10917 70.2111 4.10917ZM63.2101 6.13435C64.8813 6.13435 66.3553 6.79375 67.1843 7.88874C68.0528 9.03085 67.8293 10.7146 66.6711 11.739C65.9078 12.4456 64.8024 12.8223 63.5522 12.8223C62.8943 12.8223 62.21 12.7046 61.5914 12.4927L61.0915 12.316V15.9072H58.5648C58.5252 14.7533 58.5384 13.5759 58.5516 12.4456C58.5648 11.5271 58.5648 10.5733 58.5516 9.63139C58.499 8.26562 59.657 7.13526 60.8282 6.60531C61.5388 6.31104 62.3679 6.13435 63.2101 6.13435ZM63.3811 11.3152C64.4867 11.3152 65.3683 10.75 65.5921 9.90217V9.85506C65.6314 9.40772 65.4736 8.99562 65.1315 8.65411C64.6971 8.23025 63.9997 7.97122 63.2891 7.97122C63.039 7.97122 62.8154 8.00658 62.5917 8.06544C62.0389 8.18314 61.5256 8.5364 61.2625 8.98374C61.0519 9.34887 61.0257 9.7491 61.1835 10.1141C61.5256 10.8324 62.3811 11.3152 63.3811 11.3152ZM53.1561 6.13435C53.3798 6.13435 53.5903 6.14609 53.8009 6.16971L53.8273 8.03007C53.6167 7.99471 53.4061 7.98296 53.2087 7.98296C52.6033 7.98296 52.0638 8.14778 51.6559 8.46567C51.3533 8.66585 51.0111 9.06621 51.0373 9.86694V12.9871H48.458C48.458 12.2571 48.458 10.491 48.4713 9.50194C48.4844 8.73658 48.9319 7.92411 49.6951 7.30007C50.5899 6.5582 51.8532 6.13435 53.1561 6.13435ZM32.8507 6.14609C34.3245 6.14609 35.6667 6.6643 36.5354 7.57085C37.246 8.28911 37.496 9.3841 37.1802 10.4202C36.8381 11.3623 36.0222 12.1512 34.9957 12.5279C34.456 12.7281 33.8639 12.834 33.2191 12.834C32.5612 12.834 31.8769 12.7281 31.1925 12.5161L30.6924 12.3631V15.9425H28.1395C28.1395 14.8711 28.1395 11.4918 28.1526 9.66676C28.1263 8.63062 28.8105 7.5826 29.9292 6.92333C30.7713 6.41701 31.7978 6.14609 32.8507 6.14609ZM33.0085 11.3033C34.1139 11.3033 34.9826 10.7383 35.193 9.90217V9.87869C35.2457 9.43121 35.101 9.0191 34.772 8.67773C34.3509 8.25374 33.6402 7.98296 32.9165 7.98296C32.627 7.98296 32.3637 8.01833 32.1268 8.10067C31.6005 8.242 31.1267 8.59525 30.8899 9.0191C30.7055 9.34887 30.6662 9.70199 30.7977 10.0318C31.0872 10.7971 31.9558 11.3033 33.0085 11.3033ZM76.8041 6.14609C78.0805 6.14609 79.3176 6.54646 80.2124 7.25297C81.002 7.88874 81.4626 8.70122 81.4758 9.49007C81.489 10.0671 81.489 10.6675 81.4758 11.2327V12.94H79.0413C78.1727 12.94 77.5015 12.9517 76.8699 12.9754H76.6856C75.5014 12.9754 74.488 12.5044 73.8563 12.104C72.8694 11.4564 72.2903 10.4674 72.343 9.51369V9.49007C72.2903 8.55989 72.8694 7.60622 73.8301 6.98219C74.6459 6.44049 75.6987 6.14609 76.8041 6.14609ZM76.633 11.3269C77.5542 11.3269 78.6071 10.8912 78.9097 9.93754V9.91405C78.9886 9.46658 78.8571 9.04273 78.528 8.68947C78.1069 8.242 77.3964 7.97122 76.6725 7.97122C76.3961 7.97122 76.133 8.01833 75.8829 8.08893C75.3039 8.23025 74.7775 8.63062 74.5275 9.11332C74.33 9.50194 74.3433 9.9258 74.5406 10.2791C74.9223 10.9148 75.7118 11.3269 76.633 11.3269ZM42.7731 6.14609C44.1285 6.14609 45.4313 6.59357 46.3261 7.39429C47.0237 8.00658 47.4317 8.77181 47.4317 9.50194C47.4448 10.1377 47.4448 10.7735 47.4448 11.3975V12.9754H46.6683C45.7866 12.9754 44.8786 12.9754 43.9707 12.9636H43.8916C43.589 13.0107 43.2731 13.0342 42.9704 13.0342C41.7071 13.0342 40.5228 12.6575 39.6279 11.9863C38.7593 11.3269 38.2592 10.4085 38.2987 9.52543V9.50194C38.2592 8.58351 38.812 7.62971 39.7727 7.00567C40.6017 6.45224 41.6677 6.14609 42.7731 6.14609ZM42.5889 11.3269C44.01 11.3269 44.7865 10.5027 44.9181 9.72561V9.6785C44.8918 8.607 43.7469 7.97122 42.6547 7.97122C42.3652 7.97122 42.0888 8.01833 41.8388 8.10067C41.2729 8.242 40.7465 8.64236 40.5095 9.11332C40.3122 9.50194 40.3122 9.91405 40.5228 10.2791C40.8781 10.9148 41.6677 11.3269 42.5889 11.3269ZM57.512 6.16971V7.98296H54.9589V6.16971H57.512ZM90.1744 6.67604V13.9173C89.977 14.9771 89.3058 15.8601 88.3846 16.2957C87.4767 16.7432 86.3845 16.9905 85.2 16.9905C84.8843 16.9905 84.5552 16.9787 84.2393 16.9434C84.2657 16.3076 84.2526 15.6834 84.2393 15.1065C84.4797 15.1297 84.7214 15.1415 84.9632 15.1419C85.9633 15.1419 86.7924 14.9182 87.4241 14.4707C88.082 14.035 88.0689 13.2579 88.0689 13.0107V12.6339L87.6478 12.681L87.5161 12.6927C87.1477 12.7281 86.7791 12.7752 86.4238 12.7752C86.1081 12.7752 85.8448 12.7398 85.5948 12.681H85.5684C84.1735 12.3748 83.0419 11.3033 82.7391 10.0081C82.6207 9.58429 82.6471 7.88874 82.6865 6.68778H84.9105C84.8974 7.38242 84.8843 8.97199 84.95 9.87869C85.0027 10.5381 85.7001 11.1033 86.4634 11.1033C86.6213 11.1033 86.766 11.0796 86.8977 11.0325C87.5556 10.8442 88.0294 10.2672 88.0162 9.64314C88.0294 8.80718 88.0294 7.33544 88.0294 6.67604H90.1744ZM57.512 9.00736V12.9636H54.9589V9.00736H57.512ZM70.2111 3.77954C69.8294 3.77954 69.3295 3.77954 68.8029 3.79128H68.4345V13.2933H71.7376V12.9517C71.7113 11.1856 71.7244 9.39585 71.7244 7.67682C71.7244 6.51122 71.7376 5.31013 71.7244 4.12092V3.79128H70.9743C70.7112 3.77954 70.4611 3.77954 70.2111 3.77954ZM63.2101 5.80472C62.3022 5.80472 61.4203 5.99302 60.6571 6.34627C59.3806 6.91145 58.1173 8.15966 58.1699 9.6785C58.1831 10.6087 58.1699 11.5625 58.1699 12.4808C58.1568 13.6229 58.1437 14.8004 58.1831 15.9661L58.1962 16.2957H61.4599V15.9661V14.4354V12.8458C62.1178 13.0696 62.8416 13.1873 63.5522 13.1873C64.9077 13.1873 66.1053 12.7634 66.9343 11.9981C68.2239 10.8677 68.474 8.98374 67.5002 7.72393C66.6053 6.51122 64.9998 5.80472 63.2101 5.80472ZM63.3811 10.9737C62.539 10.9737 61.8152 10.5852 61.552 9.98465C61.4336 9.71387 61.4467 9.40772 61.6178 9.13681C61.8283 8.77181 62.2364 8.48929 62.697 8.38333H62.7232C62.9074 8.33622 63.1049 8.30085 63.3022 8.30085C63.9077 8.30085 64.4998 8.52466 64.8682 8.87778C65.1446 9.14869 65.263 9.46658 65.2368 9.81983C65.0524 10.5145 64.3156 10.9737 63.3811 10.9737ZM53.1561 5.80472C51.7612 5.80472 50.4057 6.25219 49.4451 7.05278C48.6028 7.74755 48.1158 8.63062 48.1027 9.49007C48.0896 10.4791 48.0896 12.2571 48.0896 12.9754V13.305H51.4059V12.9754V9.85506C51.3926 9.33699 51.5506 8.94851 51.8796 8.73658L51.8927 8.7247L51.9059 8.71296C52.248 8.45392 52.6955 8.31259 53.2219 8.31259C53.4061 8.31259 53.5903 8.32447 53.7746 8.3597L54.222 8.43044V8.01833L54.1957 6.15797V5.86357L53.8667 5.8282C53.6167 5.81646 53.3798 5.80472 53.1561 5.80472ZM32.8507 5.80472C31.7189 5.80472 30.6266 6.09912 29.745 6.62893C28.521 7.34718 27.7842 8.51278 27.7973 9.65502C27.7842 11.4918 27.7842 14.9182 27.7842 15.9307V16.2605H31.0741V15.9307V12.8223C31.7978 13.046 32.5216 13.1638 33.2191 13.1638C33.9034 13.1638 34.5482 13.046 35.1404 12.834C36.2722 12.4219 37.1669 11.5625 37.5355 10.5262V10.5027C37.8777 9.36061 37.6013 8.14778 36.8117 7.34718C35.8773 6.3699 34.4298 5.80472 32.8507 5.80472ZM33.0085 10.9737C32.1137 10.9737 31.3899 10.5616 31.153 9.9258C31.0477 9.6785 31.0741 9.41947 31.2188 9.16043C31.4163 8.81892 31.7978 8.5364 32.2321 8.41869H32.2584C32.4559 8.34796 32.6796 8.32447 32.9165 8.32447C33.5349 8.32447 34.1403 8.54814 34.4956 8.9014C34.7588 9.17218 34.8773 9.49007 34.8246 9.84332C34.6667 10.5145 33.9297 10.9737 33.0085 10.9737ZM76.8041 5.81646C75.6329 5.81646 74.5011 6.13435 73.6063 6.72315C72.5536 7.40604 71.9219 8.47755 71.9746 9.51369C71.9219 10.5733 72.5536 11.6802 73.6326 12.3866C74.3169 12.8223 75.396 13.3286 76.6856 13.3286H76.8831C77.5015 13.305 78.1727 13.2933 79.0413 13.2933H81.8575L81.8443 12.9517C81.8312 12.3827 81.8312 11.8135 81.8443 11.2445C81.8443 10.6675 81.8575 10.0789 81.8443 9.49007C81.8312 8.607 81.318 7.70044 80.4494 7.00567C79.5018 6.25219 78.1596 5.81646 76.8041 5.81646ZM76.633 10.9854C75.8566 10.9854 75.1986 10.6558 74.9091 10.1141C74.7513 9.84332 74.7513 9.52543 74.8959 9.23103C75.0934 8.84254 75.5276 8.51278 76.0013 8.39507H76.0277C76.2251 8.32447 76.4488 8.28911 76.6856 8.28911C77.3042 8.28911 77.8963 8.51278 78.2516 8.88965C78.5149 9.16043 78.6071 9.49007 78.5411 9.84332C78.3043 10.6322 77.4095 10.9854 76.633 10.9854ZM42.7731 5.81646C41.5886 5.81646 40.4437 6.14609 39.5621 6.73489C38.5093 7.41778 37.8908 8.48929 37.9434 9.51369C37.8908 10.491 38.4436 11.5154 39.4041 12.2454C40.378 12.9754 41.6413 13.3757 42.9968 13.3757C43.3257 13.3757 43.6548 13.3521 43.9838 13.305C44.8786 13.305 45.7998 13.3169 46.6816 13.3169H47.8396V12.9754C47.8263 12.4456 47.8396 11.9156 47.8396 11.4094C47.8396 10.7852 47.8396 10.1377 47.8263 9.50194C47.8263 8.68947 47.379 7.82989 46.6025 7.15875C45.6155 6.29916 44.2206 5.81646 42.7731 5.81646ZM42.5889 10.9854C41.8124 10.9854 41.1545 10.6558 40.865 10.1141C40.707 9.84332 40.707 9.52543 40.865 9.23103C41.0623 8.84254 41.4833 8.52466 41.9572 8.40681H41.9835C42.1941 8.33622 42.4178 8.30085 42.6678 8.30085C43.5758 8.30085 44.5364 8.81892 44.5628 9.69025C44.4444 10.3025 43.7863 10.9854 42.5889 10.9854ZM57.8804 5.8282H54.5905V8.30085H57.8804V5.8282ZM90.556 6.34627H87.6741V6.67604C87.6741 7.28833 87.6741 8.79543 87.6609 9.63139C87.6741 10.1024 87.3057 10.5498 86.8055 10.6912C86.7002 10.7264 86.5949 10.7383 86.4896 10.7383C85.9239 10.7383 85.3842 10.3143 85.3449 9.81983C85.2789 8.91314 85.2922 7.31182 85.3053 6.6643V6.32279H82.3312L82.3181 6.65242C82.3049 7.12338 82.2259 9.47832 82.3838 10.0671C82.7129 11.48 83.9631 12.6575 85.4895 12.9989C85.7659 13.0696 86.0686 13.1048 86.4238 13.1048C86.8055 13.1048 87.1872 13.0578 87.5688 13.0225L87.7003 13.0107C87.7003 13.3757 87.6609 13.9055 87.2004 14.2C86.6213 14.6002 85.8712 14.8004 84.9632 14.8004C84.7394 14.8004 84.5157 14.7886 84.2789 14.7651L83.8578 14.718L83.8709 15.1065C83.884 15.813 83.884 16.3899 83.8709 16.9198L83.8578 17.2259L84.1999 17.2613C84.5288 17.2966 84.871 17.3201 85.2 17.3201C86.4371 17.3201 87.6083 17.0611 88.569 16.5901C89.5953 16.1074 90.3323 15.1301 90.556 13.9761V6.34627ZM57.8804 8.66585H54.5905V13.2815H57.8804V8.66585Z" fill="#32448C"/>
<path d="M25.141 8.23293C23.825 2.46356 16.0607 -1.51633 9.45465 0.873977C2.0194 3.57029 -0.809923 8.73926 0.5192 14.0496C1.86145 19.3952 8.25708 22.8334 15.2449 21.5617C22.2459 20.2783 26.457 14.0024 25.141 8.23293ZM14.9291 20.1488C13.2972 20.4431 11.705 20.4431 10.231 20.1959C10.1916 18.4885 10.2441 16.7812 10.2047 15.074C10.3101 15.1093 11.389 15.4155 11.8892 15.4861C14.85 15.8628 18.1795 15.0505 19.9298 12.7897C20.2982 12.2246 20.614 11.6358 20.7851 11C21.3379 8.82174 19.6928 6.74945 18.7716 5.98409C15.337 3.21704 9.17826 3.47608 6.48049 6.97312C6.0199 7.58541 5.76991 8.30367 5.57243 9.01017C5.57243 9.01017 5.55931 17.5112 5.63836 18.3708C5.63836 18.3708 5.62508 18.3708 5.62508 18.3826C3.90115 17.2051 2.6642 15.5685 2.17721 13.6493C1.01917 9.05715 3.46696 4.57107 9.91524 2.23975C15.6397 0.167467 22.3643 3.60566 23.5093 8.60981C24.6542 13.614 20.9826 19.042 14.9291 20.1488ZM10.2705 9.72829C10.2968 9.63421 10.3627 9.44577 10.4021 9.36329C11.3233 7.59716 14.1921 7.34986 15.7845 8.51559C16.074 8.76288 16.3371 9.04541 16.5213 9.36329C16.5609 9.45751 16.6398 9.63421 16.6793 9.72829C16.8241 10.3994 16.6135 11.1177 16.074 11.6005C14.6922 12.8486 12.1918 12.778 10.8758 11.4828C10.6127 11.2355 10.4416 10.9176 10.3101 10.5996C10.2441 10.3171 10.2179 10.0227 10.2705 9.72829Z" fill="#32448C"/>
<path d="M12.3358 21.9853C6.5323 21.9853 1.54469 18.8415 0.347276 14.0847C-0.337049 11.353 0.0708905 8.6919 1.54469 6.39594C3.09755 3.98215 5.80845 2.01583 9.38803 0.72065C12.5331 -0.421455 16.1652 -0.197786 19.3498 1.33294C22.4555 2.8283 24.6927 5.39503 25.3375 8.20919C25.9825 11.0586 25.3113 14.1435 23.482 16.6868C21.587 19.3244 18.6788 21.1259 15.2967 21.738C14.2835 21.903 13.2963 21.9853 12.3358 21.9853ZM13.5596 0.332029C12.1759 0.332454 10.8049 0.568228 9.51958 1.0268C2.58446 3.53467 -0.718738 8.39763 0.702563 14.0141C1.86061 18.6179 6.70338 21.6557 12.3358 21.6557C13.2832 21.6557 14.2439 21.5732 15.2178 21.3967C18.4946 20.7961 21.3108 19.0535 23.153 16.4985C24.9296 14.0258 25.5876 11.0351 24.956 8.26805C24.3374 5.54811 22.166 3.07546 19.1656 1.62721C17.3759 0.76776 15.4546 0.332029 13.5596 0.332029ZM12.4147 20.5488C11.6646 20.5488 10.9145 20.49 10.1908 20.3605L10.046 20.3369V20.1957C10.0328 19.3361 10.0328 18.4648 10.0328 17.6169C10.0328 16.781 10.046 15.9215 10.0197 15.0737V14.8383L10.2697 14.9089C10.4539 14.9677 11.454 15.2504 11.9278 15.3092C15.152 15.7214 18.2313 14.6852 19.7842 12.6835C20.0737 12.2361 20.4421 11.6238 20.6 10.9526C21.1001 8.9863 19.7052 6.97287 18.6392 6.10154C16.9284 4.73577 14.4413 4.06462 11.9936 4.32366C9.71691 4.55907 7.80877 5.53636 6.6376 7.06709C6.19014 7.66763 5.95328 8.37401 5.76907 9.03341C5.76907 9.50437 5.75595 17.5346 5.83485 18.3588L5.84797 18.559L5.71642 18.5473L5.65064 18.6179L5.50581 18.5236C3.68985 17.2756 2.47915 15.6035 1.99216 13.6843C1.40001 11.3059 1.7553 8.99804 3.03177 7.00823C4.37417 4.91233 6.72963 3.20504 9.83534 2.07468C12.5726 1.08565 15.7177 1.27409 18.4813 2.6045C21.1791 3.89967 23.1267 6.12516 23.6795 8.57419C24.8769 13.861 20.8895 19.2301 14.9676 20.3134C14.1124 20.4665 13.257 20.5488 12.4147 20.5488ZM10.4012 20.0544C11.8621 20.278 13.3754 20.2545 14.8887 19.9836C20.6132 18.9357 24.469 13.7432 23.3109 8.64479C22.7714 6.30172 20.9027 4.15871 18.3102 2.91064C15.652 1.62721 12.6122 1.45065 9.98017 2.39257C3.97936 4.55907 1.13675 8.76263 2.36072 13.6137C2.79491 15.3445 3.86093 16.8635 5.44003 18.0409C5.37426 16.2394 5.38738 9.33955 5.38738 9.02166V8.9863C5.58486 8.29167 5.83485 7.54979 6.32169 6.89039C7.57191 5.27733 9.55911 4.25293 11.9541 4.00564C14.5203 3.73486 17.1128 4.42962 18.9025 5.86613C19.8763 6.66672 21.5476 8.77437 20.9686 11.0468C20.7842 11.7533 20.4027 12.4009 20.1001 12.8837C18.455 15.0031 15.2309 16.0864 11.8752 15.6625C11.4804 15.6154 10.7829 15.427 10.4012 15.321C10.4144 16.0981 10.4144 16.8752 10.4012 17.6406C10.3881 18.4451 10.3881 19.2498 10.4012 20.0544ZM13.5465 12.6599H13.4674C12.4016 12.6364 11.4015 12.2478 10.7303 11.6003C10.4803 11.3647 10.2959 11.0705 10.1249 10.6701L10.1117 10.6465C10.0328 10.2815 10.0197 9.98721 10.0591 9.70455V9.68106L10.1908 9.29244C10.6118 8.49172 11.4277 7.93841 12.4805 7.72649C13.678 7.49094 14.9676 7.73823 15.8626 8.39763C16.2178 8.70378 16.4678 8.9863 16.6522 9.29244L16.6653 9.30419C16.7048 9.39841 16.7837 9.5751 16.8233 9.66919L16.8364 9.69281C17.0075 10.4345 16.7573 11.1999 16.1783 11.718C15.5335 12.3185 14.573 12.6599 13.5465 12.6599ZM10.4934 10.5641C10.6381 10.9174 10.8092 11.1764 11.0067 11.3765C11.6119 11.9653 12.5069 12.3185 13.4807 12.3303C14.4281 12.3538 15.3231 12.0359 15.9415 11.4826C16.4153 11.0468 16.6258 10.3992 16.4942 9.77515C16.4547 9.68106 16.3758 9.51611 16.3494 9.43377C16.1916 9.16299 15.9679 8.90382 15.652 8.64479C14.8625 8.06786 13.6912 7.83245 12.6122 8.05612C11.6777 8.24456 10.954 8.72726 10.5854 9.43377L10.467 9.77515C10.4012 9.98721 10.4276 10.2462 10.4934 10.5641Z" fill="#32448C"/>
</svg>
