<svg width="91" height="18" viewBox="0 0 91 18" fill="none" xmlns="http://www.w3.org/2000/svg">
<path d="M9.90602 4.91821L11.2564 4.9332V11.4512H18.808L18.7912 12.6295H9.92276L9.90602 4.91821ZM28.61 4.94804H30.2104L33.3944 8.42336L36.5618 4.94804H38.1788L34.0612 9.7508V12.6295H32.7276V9.7508L28.61 4.94804ZM38.2621 6.05181C38.2621 5.4105 39.0289 4.94804 39.779 4.9332C41.5628 4.9332 45.7136 4.90336 45.9971 4.97788C46.5471 5.11219 47.0139 5.52983 47.1307 6.03697C47.1973 6.27548 47.164 6.76777 47.164 6.76777H45.7803V6.21582C45.7803 6.11148 45.597 6.09663 45.4804 6.09663H39.8958C39.7291 6.08165 39.5791 6.21582 39.5957 6.36498V7.91622C39.5791 8.06538 39.7291 8.19969 39.8958 8.19969H45.7136C46.4972 8.24437 47.164 8.85585 47.164 9.55696V11.2574C47.1473 11.7942 46.7306 12.3013 46.1804 12.4953C45.8637 12.6146 41.6295 12.6146 39.8291 12.6146C39.2123 12.5996 38.6122 12.2715 38.3621 11.7495C38.2121 11.4363 38.2287 10.7502 38.2287 10.7502H39.5791C39.5791 10.7502 39.4957 11.2722 39.7457 11.4363H45.5303C45.6637 11.4363 45.8136 11.3319 45.797 11.2125V9.87012C45.797 9.70612 45.8304 9.52713 45.7136 9.39282C45.5944 9.36235 45.4709 9.3473 45.347 9.34814H39.8123C39.079 9.34814 38.2621 8.96033 38.2621 8.22952C38.2788 7.91622 38.2621 6.05181 38.2621 6.05181ZM57.7161 4.9332H59.3498L65.2678 11.0485V4.9332L66.6348 4.94804L66.6015 12.6295H65.051L59.0665 6.49929L59.0498 12.6295H57.7161V4.9332ZM9.27268 6.27548C9.25594 5.54468 8.48909 4.94804 7.70565 4.94804H0.370728V12.6146H1.68763L1.72097 9.84029L7.63896 9.85528C8.48909 9.85528 9.27268 9.27349 9.27268 8.51285V6.27548ZM7.92229 8.48302C7.92229 8.61733 7.78892 8.70683 7.63896 8.70683H1.90442C1.8044 8.67699 1.70438 8.60235 1.72097 8.48302V6.30531C1.72097 6.15616 1.90442 6.09663 2.05438 6.09663H7.65556C7.82226 6.09663 7.92229 6.21582 7.92229 6.35013V8.48302ZM28.46 6.3203C28.46 5.57451 27.8765 4.9332 27.3098 4.9332H21.0752C20.275 4.94804 19.5581 5.55966 19.5581 6.27548V12.6146H20.8917V9.92979H27.1098V12.0328L27.1431 12.6146H28.4433L28.46 11.1082C28.46 11.1082 28.4433 7.91622 28.46 6.3203ZM27.1098 8.76649H20.8917V6.36498C20.8584 6.21582 21.0085 6.08165 21.1752 6.09663H26.8263C26.993 6.08165 27.1098 6.2308 27.093 6.36498C27.1098 7.17043 27.1098 8.76649 27.1098 8.76649ZM56.866 10.959C56.866 9.9746 56.8494 6.70811 56.8494 6.05181C56.8494 5.44033 56.0492 4.94804 55.3323 4.9332H49.5145C48.8309 4.9332 47.9474 5.67899 47.9474 6.20097V11.2574C47.9642 11.9882 48.7143 12.5996 49.5145 12.6146H55.2656C55.9159 12.6146 56.5493 12.2268 56.766 11.6749C56.8827 11.4512 56.866 11.1977 56.866 10.959ZM55.3656 11.4512H49.4811C49.3811 11.4512 49.2977 11.3319 49.3144 11.2275V6.24565C49.3478 6.15616 49.3144 6.03697 49.6644 6.03697H55.2157C55.3824 6.03697 55.5158 6.09663 55.5158 6.24565V11.2275C55.5323 11.3319 55.4824 11.4512 55.3656 11.4512Z" fill="#32448C"/>
<path d="M70.7526 0.741211L77.5207 3.50057L70.7526 6.27477V0.741211Z" fill="#32448C"/>
<path d="M77.5197 3.50146L84.2712 6.26082L77.5197 9.02018V3.50146Z" fill="#32448C"/>
<path d="M70.7526 6.27515L77.5207 9.01965L70.7526 11.764V6.27515Z" fill="#32448C"/>
<path d="M90.8899 8.98978L84.2719 11.779V6.26025L90.8899 8.98978Z" fill="#32448C"/>
<path d="M84.2712 11.7791L77.5197 14.5385V9.01978L84.2712 11.7791Z" fill="#32448C"/>
<path d="M77.5207 14.538L70.7526 17.2824V11.7637L77.5207 14.538Z" fill="#32448C"/>
</svg>
