<svg width="92" height="36" viewBox="0 0 92 36" fill="none" xmlns="http://www.w3.org/2000/svg">
<path d="M72.5077 35.5871C64.8913 35.5871 58.6949 30.043 58.6949 23.2282C58.6949 16.4135 64.8913 10.8694 72.5077 10.8694C80.1243 10.8694 86.3206 16.4135 86.3206 23.2282C86.3206 30.043 80.1243 35.5871 72.5077 35.5871ZM72.5077 12.3896C65.8295 12.3896 60.3855 17.2529 60.3855 23.2357C60.3855 29.2185 65.8211 34.082 72.5077 34.082C79.1944 34.082 84.6299 29.2185 84.6299 23.2357C84.6299 17.2529 79.1859 12.3896 72.5077 12.3896Z" fill="#32448C"/>
<path d="M68.9839 8.13885C68.9839 8.16908 68.9415 8.17664 68.9331 8.14641C68.5528 6.66387 65.1123 0.469293 64.7571 0.590374C64.3515 0.719014 65.0954 7.07989 65.6364 8.95564C65.6448 8.98588 65.6024 8.99344 65.5855 8.97076C63.1848 5.54444 60.4205 5.61261 59.888 5.68064C59.8542 5.6882 59.8542 5.726 59.8795 5.73356C63.1933 7.26145 64.7909 11.6256 64.9432 12.0568C64.9516 12.0719 64.9685 12.0795 64.9938 12.0719C66.8367 11.0735 68.9501 10.4382 71.2155 10.2566C71.2324 10.2566 71.2493 10.2415 71.2409 10.2264C71.1395 9.8406 70.1842 5.83196 72.0186 3.04858C72.0356 3.0259 72.0101 2.99553 71.9848 3.00309C71.5114 3.14685 69.0853 4.44027 68.9839 8.13885ZM71.8388 15.1063C72.4161 13.7352 74.6714 13.2243 76.8719 13.966C79.0724 14.7079 80.3901 16.4234 79.8127 17.7946C79.2352 19.1657 76.9799 19.6767 74.7796 18.9348C72.579 18.1929 71.2612 16.4775 71.8388 15.1063Z" fill="#32448C"/>
<path d="M6.12381 26.5033V20.2557H8.00902C8.67675 20.2557 9.29394 20.3994 9.63203 20.6263C10.1984 21.0121 10.3506 21.6777 10.3506 22.0634C10.3506 22.6459 10.1308 23.0013 9.91098 23.2584C9.72496 23.4702 9.25155 23.6669 8.93035 23.7804C9.36153 24.34 10.6633 26.5865 10.6633 26.5865H9.12482C9.12482 26.5865 7.67923 23.9695 7.5356 23.9695H7.30735V26.5033H6.12381ZM7.90749 21.3449H7.30735V22.7744H7.90749C8.28797 22.7744 8.49918 22.7139 8.71054 22.5854C8.92191 22.4567 9.03189 22.2827 9.03189 22.0634C9.03189 21.844 8.93035 21.6702 8.71899 21.5415C8.50763 21.4129 8.29642 21.3449 7.90749 21.3449ZM0.671387 26.5033V20.2557H2.55645C3.22433 20.2557 3.84137 20.3994 4.17961 20.6263C4.74596 21.0121 4.89803 21.6777 4.89803 22.0634C4.89803 22.9937 4.22185 23.6442 3.57931 23.7955C2.86934 23.962 1.85492 23.9695 1.85492 23.9695V26.5033H0.671387ZM2.46352 21.3449H1.86337V22.7744H2.46352C2.84385 22.7744 3.05521 22.7139 3.26657 22.5854C3.47793 22.4567 3.58776 22.2827 3.58776 22.0634C3.58776 21.844 3.48638 21.6702 3.27502 21.5415C3.06366 21.4129 2.85229 21.3449 2.46352 21.3449ZM62.4405 26.5865V20.339H64.4101C65.0779 20.339 65.6951 20.4826 66.0332 20.7095C66.5995 21.0953 66.7517 21.7609 66.7517 22.1467C66.7517 22.729 66.5319 23.0846 66.3121 23.3417C66.1262 23.5535 65.6528 23.7502 65.3315 23.8635C64.9089 24.0073 63.8014 23.9771 63.8014 23.9771L63.793 26.594H62.4405V26.5865ZM64.3171 21.4282H63.8014V22.8576H64.3171C64.6975 22.8576 64.9089 22.797 65.1203 22.6685C65.3315 22.5399 65.4415 22.366 65.4415 22.1467C65.4415 21.9273 65.3399 21.7533 65.1287 21.6247C64.9174 21.4886 64.706 21.4282 64.3171 21.4282ZM25.685 21.118L24.7637 21.9273C24.2058 21.466 23.335 21.065 22.5995 21.065C22.2699 21.065 21.9571 21.118 21.6697 21.2239C21.3823 21.3298 21.1203 21.4735 20.9005 21.6702C20.6806 21.8592 20.5115 22.1012 20.3848 22.3963C20.2579 22.6912 20.1903 23.0164 20.1903 23.3644C20.1903 24.0602 20.4101 24.6199 20.8496 25.0435C21.2892 25.4746 21.8725 25.6864 22.5911 25.6864C23.149 25.6864 23.6308 25.5275 24.0451 25.225C24.2818 25.051 24.5692 24.8998 24.6959 24.4005L22.6079 24.393L22.5911 23.319H26.2007C26.2007 24.4838 25.9639 25.051 25.2962 25.7317C24.6368 26.4125 23.7323 26.7529 22.5826 26.7529C22.0332 26.7529 21.5259 26.6696 21.0525 26.4957C20.5791 26.3218 20.1734 26.0948 19.8353 25.7922C19.4931 25.4881 19.2228 25.1254 19.0406 24.7258C18.8463 24.3098 18.7532 23.856 18.7532 23.3719C18.7532 22.7214 18.9223 22.1467 19.252 21.6398C19.5902 21.1255 20.0466 20.7246 20.63 20.4448C21.2132 20.165 21.8556 20.0212 22.5657 20.0212C23.149 20.0212 23.6646 20.1045 24.1127 20.2632C24.5607 20.4221 25.3723 20.8835 25.685 21.118ZM34.2315 20.2557L35.322 26.5033H33.9864L33.3523 22.5399L31.8053 26.5033H30.5795L28.9988 22.487L28.3817 26.5033H27.063L28.1704 20.2557H29.3961L31.2052 24.8923L33.0057 20.2557H34.2315ZM90.8609 20.4901L91.1905 22.3811H90.7847L90.5904 21.1784L90.1254 22.3811H89.7534L89.2801 21.1633L89.0941 22.3811H88.6967L89.0265 20.4901H89.3984L89.9394 21.8971L90.4804 20.4901H90.8609ZM39.1767 20.1801H40.3855L43.2935 26.5865H41.7804L41.1887 25.2855H38.399L37.8072 26.5865H36.3533L39.1767 20.1801ZM40.7744 24.0905L40.2925 23.0694C40.1403 22.7214 39.9629 22.2676 39.7684 21.708H39.7346C39.5064 22.3811 39.3372 22.835 39.2443 23.0694L38.7709 24.0829H40.7744V24.0905ZM74.4781 20.1801H75.6955L78.6034 26.5865H77.0902L76.4985 25.2855H73.7089L73.1172 26.5865H71.6631L74.4781 20.1801ZM76.0758 24.0905L75.5939 23.0694C75.4419 22.7214 75.2643 22.2676 75.0698 21.708H75.036C74.8078 22.3811 74.6388 22.835 74.5457 23.0694L74.0723 24.0829H76.0758V24.0905ZM14.425 20.1801H15.6339L18.5418 26.5865H17.0288L16.437 25.2855H13.6473L13.0556 26.5865H11.6017L14.425 20.1801ZM16.0144 24.0905L15.5325 23.0694C15.3803 22.7214 15.2029 22.2676 15.0084 21.708H14.9746C14.7464 22.3811 14.5772 22.835 14.4843 23.0694L14.0109 24.0829H16.0144V24.0905ZM43.1244 21.3978V20.1952H47.3004V21.3978H45.9056V26.5713H44.5107V21.3978H43.1244ZM87.3104 20.8381V20.475H88.57V20.8381H88.1473V22.4038H87.7247V20.8381H87.3104ZM48.2556 26.6318V20.2632H49.6419V26.6318H48.2556ZM67.5379 26.6318V20.339H68.9326V25.467H70.8685V26.6318H67.5379ZM79.7192 26.5789V23.8258L77.589 20.3012H78.8739L80.3364 22.7592H80.3617L81.8242 20.3012H83.1091L80.945 23.8258V26.5789H79.7192ZM54.6464 25.7091C53.9363 25.7317 53.3531 25.4897 52.9135 25.0586C52.4654 24.6274 52.2457 24.0678 52.2457 23.3795C52.2457 22.6988 52.4654 22.1391 52.9135 21.708C53.3615 21.2768 53.9363 21.0575 54.6464 21.0575C56.2188 21.0575 56.8527 21.9878 56.8527 21.9878L57.715 21.3071C57.4192 20.9515 57.0472 20.6641 56.6077 20.4372C56.0327 20.1423 55.3735 19.9985 54.6549 19.9985C53.9363 19.9985 53.277 20.1423 52.6936 20.4372C52.1104 20.7322 51.6539 21.1331 51.3242 21.6474C50.9946 22.1618 50.8255 22.7441 50.8255 23.3795L50.8086 23.3871C50.8086 24.0224 50.9777 24.6048 51.3073 25.1267C51.637 25.641 52.0935 26.0495 52.6768 26.3444C53.2601 26.6394 53.911 26.7831 54.638 26.7831C55.3566 26.7831 56.0074 26.6318 56.5907 26.3369C57.0304 26.1154 57.4135 25.814 57.715 25.4519L56.8443 24.6805C56.8443 24.6805 56.0159 25.6713 54.6464 25.7091Z" fill="#32448C"/>
</svg>
