<svg width="92" height="22" viewBox="0 0 92 22" fill="none" xmlns="http://www.w3.org/2000/svg">
<path fill-rule="evenodd" clip-rule="evenodd" d="M31.4448 9.69798C31.5082 11.1655 31.1185 12.5115 29.9677 13.6142C29.0524 14.4898 27.9107 14.9682 26.5604 15.0087C25.917 15.0249 25.2464 15.0573 24.6212 14.9439C22.383 14.5627 20.8333 13.0951 20.4619 11.0439C20.2534 9.90059 20.2624 8.75741 20.643 7.63042C21.4134 5.33582 23.724 4.03862 26.5333 4.30616C29.4512 4.58179 31.327 6.38991 31.4539 9.02495C31.4539 9.25199 31.4448 9.47904 31.4448 9.69798ZM22.6548 9.50333C22.7272 10.079 22.7454 10.4844 22.827 10.8736C23.1079 12.2033 24.0956 13.1034 25.3915 13.225C26.9682 13.379 28.1735 12.8438 28.7172 11.6682C29.3243 10.3628 29.3152 9.01685 28.7263 7.70345C28.2368 6.61696 27.1948 6.08174 25.8174 6.11427C24.4853 6.13857 23.4795 6.73048 23.0626 7.83317C22.836 8.41684 22.7635 9.04924 22.6548 9.50333Z" fill="#32448C"/>
<path fill-rule="evenodd" clip-rule="evenodd" d="M9.48707 7.49313C8.81648 7.49313 8.18209 7.50123 7.55675 7.48503C7.44813 7.48503 7.27584 7.37151 7.25774 7.28228C7.04939 6.44713 6.3969 6.07417 5.53606 6.01748C4.98329 5.98508 4.40322 6.04177 3.8687 6.16339C3.36119 6.27692 3.08933 6.65798 3.06217 7.13636C3.03502 7.59045 3.32498 7.88229 3.75087 8.03631C4.3308 8.24715 4.94693 8.40117 5.54511 8.56342C6.30623 8.76603 7.1037 8.91195 7.84687 9.15519C10.1575 9.92555 10.6469 12.6093 8.82553 14.1174C7.38461 15.3174 3.24336 15.366 1.8026 14.0686C1.05039 13.3957 0.696908 12.6093 0.633545 11.6282C1.34035 11.6282 2.02 11.62 2.69964 11.6363C2.79031 11.6363 2.9353 11.7499 2.96245 11.839C3.21621 12.8038 3.98637 13.2092 5.0014 13.2579C5.55417 13.2903 6.13409 13.2417 6.67781 13.1363C7.23058 13.0309 7.55675 12.6741 7.62932 12.1552C7.70188 11.6606 7.37556 11.3282 6.94062 11.1661C6.06168 10.8498 5.15543 10.6065 4.25823 10.3471C3.78708 10.2093 3.28862 10.1201 2.81747 9.98224C1.61221 9.63358 0.941612 8.87956 0.832838 7.75257C0.696908 6.48776 1.05944 5.39317 2.42779 4.79317C2.9715 4.54992 3.58779 4.4202 4.18582 4.33098C5.20069 4.19316 6.21571 4.23365 7.19437 4.54182C8.65324 5.00401 9.54138 6.1229 9.48707 7.49313Z" fill="#32448C"/>
<path fill-rule="evenodd" clip-rule="evenodd" d="M11.0728 4.55002C12.9032 4.55002 14.7066 4.50129 16.5099 4.56622C18.4039 4.63101 19.464 5.53109 19.6725 7.20949C19.7449 7.79316 19.6997 8.40937 19.5638 8.98508C19.2285 10.3553 18.1138 11.085 16.374 11.1336C15.3772 11.1581 14.3803 11.1419 13.3383 11.1419V14.7013H11.0728V4.55002ZM13.3473 9.22022C14.3622 9.22022 15.368 9.28501 16.3469 9.19592C17.0627 9.131 17.3708 8.64451 17.407 7.88239C17.4433 7.14456 17.108 6.51216 16.4555 6.43103C15.4316 6.30131 14.3894 6.31751 13.3473 6.27702V9.22022Z" fill="#32448C"/>
<path fill-rule="evenodd" clip-rule="evenodd" d="M40.6048 6.35853H37.3245V14.7179H34.9774V6.37473H31.6155V4.57471H40.6048V6.35853Z" fill="#32448C"/>
<path fill-rule="evenodd" clip-rule="evenodd" d="M83.3773 14.547H82.4258V4.78502C83.3682 4.60657 83.468 4.6391 83.9664 5.3282C85.7697 7.78492 87.573 10.2416 89.3672 12.6903C89.467 12.8281 89.5757 12.9578 89.7569 13.201V4.74439H90.7265V14.4822C89.911 14.7092 89.6572 14.6362 89.2313 14.0443C87.4119 11.5648 85.5905 9.08644 83.767 6.60934C83.6673 6.47962 83.5677 6.34977 83.3682 6.26068C83.3773 9.00923 83.3773 11.7579 83.3773 14.547Z" fill="#32448C"/>
<path fill-rule="evenodd" clip-rule="evenodd" d="M70.9714 9.61689C71.0893 8.94399 71.1255 8.24666 71.3338 7.59806C72.0227 5.44937 73.8712 4.36288 76.5353 4.45211C78.6921 4.52513 80.4502 5.90346 80.9577 7.93849C81.2929 9.28442 81.2657 10.6385 80.7673 11.952C80.0876 13.7358 78.5109 14.7736 76.4177 14.8385C73.2732 14.9357 71.1707 13.1682 71.0712 10.3385C71.0621 10.1034 71.0712 9.86013 71.0712 9.62499C71.0348 9.62499 71.0076 9.62499 70.9714 9.61689ZM80.278 9.70611C80.2326 9.69801 80.1783 9.68182 80.133 9.67372C80.124 8.78174 80.0062 7.91419 79.5439 7.11157C78.828 5.87916 77.6954 5.23853 76.1276 5.23043C74.5509 5.22233 73.3728 5.83043 72.6931 7.07904C71.787 8.74934 71.787 10.4925 72.6297 12.179C73.2913 13.4845 74.5147 14.1169 76.1095 14.1088C77.7044 14.1007 78.9368 13.46 79.562 12.1466C79.9245 11.3763 80.0514 10.5251 80.278 9.70611Z" fill="#32448C"/>
<path fill-rule="evenodd" clip-rule="evenodd" d="M41.1404 9.62532C41.2944 8.8794 41.3579 8.11727 41.6117 7.40375C42.2732 5.54703 43.9859 4.46054 46.1245 4.45244C48.562 4.44434 50.2386 5.43351 50.9635 7.37135C51.5616 8.99292 51.5706 10.647 50.8366 12.228C50.0936 13.8416 48.7343 14.7577 46.7316 14.8388C43.4331 14.9686 41.2763 13.1118 41.2582 10.1361V9.64152C41.222 9.64152 41.1767 9.63342 41.1404 9.62532ZM42.1554 9.60103C42.2913 10.2822 42.3456 10.9227 42.5451 11.5389C43.0615 13.1523 44.448 14.0929 46.2423 14.1172C48.0547 14.1334 49.4864 13.2009 50.0392 11.5956C50.4832 10.3065 50.4832 9.00102 50.0211 7.72002C49.4592 6.14704 48.118 5.2552 46.351 5.23886C44.5567 5.22266 43.2065 6.05781 42.6175 7.63079C42.3819 8.27129 42.3004 8.96052 42.1554 9.60103Z" fill="#32448C"/>
<path fill-rule="evenodd" clip-rule="evenodd" d="M53.5919 10.3153V13.8828C53.5919 14.653 53.5919 14.653 52.6858 14.5314V4.76137C52.7944 4.75314 52.9213 4.72884 53.0482 4.72884C54.3441 4.72884 55.6489 4.69644 56.9449 4.74504C57.4976 4.76947 58.0504 4.93159 58.5851 5.07751C58.8025 5.13433 59.0019 5.27215 59.1741 5.40187C60.7781 6.62618 60.2615 9.39904 58.2678 9.98285C57.4341 10.2261 56.5007 10.2423 55.6127 10.3153C54.9783 10.3558 54.3258 10.3153 53.5919 10.3153ZM53.6371 9.46397C53.764 9.48016 53.8275 9.48826 53.8909 9.48826C54.7246 9.48826 55.5583 9.50446 56.3921 9.48016C56.818 9.46397 57.262 9.41524 57.6698 9.30995C58.6937 9.05037 59.1196 8.41797 59.0653 7.30718C59.0291 6.39914 58.5216 5.74244 57.5338 5.63702C56.2562 5.4992 54.9602 5.5154 53.6371 5.46667V9.46397Z" fill="#32448C"/>
<path fill-rule="evenodd" clip-rule="evenodd" d="M63.5223 5.50684H60.106V4.75269H67.9354V5.50684H64.5462V14.531H63.5223V5.50684Z" fill="#32448C"/>
<path fill-rule="evenodd" clip-rule="evenodd" d="M11.3267 0.398682C12.3053 0.98249 13.3747 1.20953 14.5436 1.177C15.341 1.1608 16.1385 1.1851 16.936 1.25813C18.0958 1.36355 19.0473 1.86623 19.8358 2.62026C19.9626 2.73378 20.0805 2.8554 20.3161 3.09054C20.3976 2.96082 20.4338 2.8392 20.5245 2.74998C21.5666 1.66349 22.9077 1.1932 24.4936 1.1689C25.427 1.15271 26.3604 1.1608 27.2846 1.06348C27.8011 1.01489 28.2906 0.787842 28.816 0.633825C28.1727 1.49327 27.2484 1.85814 26.1338 1.89863C25.5539 1.91483 24.9647 1.89863 24.3848 1.89863C22.4365 1.89863 20.9323 2.8959 20.3704 4.5581C20.3342 4.65542 20.3069 4.74451 20.2526 4.93106C20.171 4.69592 20.1167 4.55 20.0624 4.39598C19.5005 2.8797 17.9963 1.90673 16.2201 1.89053C15.3591 1.88243 14.4802 1.89863 13.6284 1.79321C12.6134 1.68792 11.8794 1.14461 11.3267 0.398682Z" fill="#32448C"/>
<path fill-rule="evenodd" clip-rule="evenodd" d="M68.7161 4.73633H69.6314V14.5389H68.7161V4.73633Z" fill="#32448C"/>
<path fill-rule="evenodd" clip-rule="evenodd" d="M51.8517 18.8202C52.4409 18.4877 52.7218 18.4958 53.2746 18.8932C53.4105 18.8121 53.5283 18.7148 53.6824 18.6581C54.217 18.4391 54.7334 18.6662 54.7879 19.1851C54.8422 19.6553 54.8241 20.1337 54.815 20.6121C54.815 20.6931 54.6882 20.7823 54.6248 20.8635C54.5613 20.7742 54.4435 20.6931 54.4435 20.604C54.4163 20.1985 54.4254 19.8013 54.4254 19.3959C54.4254 19.112 54.3166 18.877 53.9452 18.8851C53.6098 18.8932 53.3743 19.0553 53.347 19.3797C53.3198 19.7689 53.3379 20.158 53.3108 20.5391C53.3017 20.6526 53.1748 20.758 53.1024 20.8635C53.0389 20.758 52.9301 20.6607 52.9301 20.5472C52.903 20.1742 52.9211 19.8013 52.9211 19.4283C52.9211 19.1527 52.8668 18.8932 52.4861 18.8851C52.1236 18.877 51.8791 19.0553 51.8517 19.3878C51.8155 19.777 51.8246 20.158 51.7884 20.5472C51.7793 20.6526 51.6796 20.758 51.6162 20.8635C51.5437 20.758 51.4168 20.6445 51.4168 20.5391C51.3987 20.004 51.3987 19.4688 51.4168 18.9337C51.4168 18.8364 51.5075 18.7391 51.5527 18.6419C51.6253 18.6905 51.725 18.7473 51.8517 18.8202ZM75.7117 17.8148C76.3913 17.8148 77.0257 17.7824 77.6419 17.8229C78.086 17.8553 78.3579 18.2445 78.3579 18.6662C78.3579 19.1284 78.0497 19.4769 77.5513 19.5499C77.3066 19.5823 77.0529 19.5823 76.8082 19.5823C76.1468 19.5904 76.1468 19.5823 76.1468 20.1985C76.1468 20.3446 76.1739 20.4986 76.1377 20.6445C76.1195 20.7337 76.0018 20.7985 75.9202 20.8716C75.8476 20.8066 75.7207 20.7418 75.7117 20.6769C75.7026 19.7284 75.7117 18.7878 75.7117 17.8148ZM76.183 18.1229V19.2337C76.6089 19.2337 76.9986 19.2581 77.3883 19.2256C77.7597 19.1932 77.9229 18.958 77.9047 18.6338C77.8866 18.3175 77.6873 18.1392 77.3428 18.1311C76.9624 18.1148 76.5817 18.1229 76.183 18.1229ZM27.0131 18.7797C27.1672 18.7229 27.285 18.6743 27.4028 18.6338C27.439 18.7229 27.5116 18.8121 27.5116 18.9013C27.5116 19.5742 27.5478 20.2473 27.4844 20.9121C27.4209 21.6742 26.4513 22.0716 25.7264 21.6499C25.5633 21.5526 25.4727 21.3661 25.3548 21.2283C25.3912 21.1877 25.4183 21.1553 25.4546 21.1148C25.5724 21.1553 25.7264 21.1715 25.7898 21.2526C26.0616 21.6013 26.4513 21.5932 26.7594 21.4228C26.9679 21.3012 27.0495 20.9932 27.131 20.7418C26.2611 20.9689 25.8352 20.8959 25.5179 20.458C25.2008 20.004 25.2643 19.2175 25.6448 18.8607C25.9983 18.5284 26.4877 18.5122 27.0131 18.7797ZM25.7174 19.7284C25.7174 20.3527 26.1523 20.7256 26.6689 20.5391C27.0495 20.4013 27.2488 19.8905 27.1038 19.4121C26.995 19.0634 26.7594 18.8283 26.3244 18.8689C25.9348 18.9175 25.7174 19.25 25.7174 19.7284ZM1.40437 19.5661C1.40437 19.9959 1.41342 20.3201 1.39532 20.6445C1.39532 20.7175 1.28655 20.7904 1.23208 20.8635C1.15967 20.7904 1.01469 20.7175 1.01469 20.6445C0.996582 19.712 0.996582 18.7797 0.996582 17.8148C1.66718 17.8148 2.30142 17.7743 2.9177 17.831C3.3798 17.8715 3.63356 18.2526 3.6064 18.7229C3.5883 19.1932 3.28008 19.5175 2.75446 19.558C2.33762 19.5904 1.91173 19.5661 1.40437 19.5661ZM1.43153 19.2337C1.87552 19.2337 2.27426 19.2581 2.66394 19.2256C3.01727 19.2013 3.18956 18.9661 3.18051 18.6662C3.17146 18.3661 3.00822 18.1473 2.64584 18.1311C2.25616 18.1148 1.85742 18.1311 1.43153 18.1311V19.2337ZM31.3357 17.7986C31.9792 17.7986 32.5229 17.7824 33.0665 17.8067C33.6102 17.831 33.9184 18.1311 33.9456 18.6013C33.9727 19.1284 33.6827 19.4932 33.139 19.558C32.8129 19.5985 32.4775 19.5985 32.1423 19.5823C31.8432 19.5742 31.7073 19.6634 31.7345 19.9391C31.7526 20.158 31.7526 20.3851 31.7254 20.604C31.7164 20.6931 31.6076 20.7742 31.5531 20.8635C31.4807 20.7823 31.3448 20.7094 31.3448 20.6283C31.3267 19.7039 31.3357 18.7716 31.3357 17.7986ZM31.7616 19.2419C32.1785 19.2419 32.5591 19.2581 32.9397 19.2337C33.3112 19.2094 33.5197 18.9986 33.5106 18.6743C33.5016 18.358 33.3202 18.1392 32.9305 18.1311C32.5501 18.1229 32.1785 18.1311 31.7616 18.1311V19.2419ZM17.9967 18.7554C17.9967 18.5041 17.9784 18.277 18.0057 18.0581C18.0148 17.9689 18.1236 17.8796 18.1779 17.7905C18.2503 17.8715 18.3772 17.9527 18.3772 18.0338C18.3954 18.9013 18.3954 19.7608 18.3772 20.6283C18.3772 20.7094 18.2776 20.7823 18.2231 20.8635C17.897 20.5715 17.6251 20.9525 17.317 20.9121C17.1902 20.8959 17.0452 20.8959 16.9274 20.8554C16.293 20.6445 16.0302 19.85 16.3292 19.1527C16.5467 18.65 17.2716 18.3986 17.8244 18.7391C17.8425 18.7635 17.8789 18.7554 17.9967 18.7554ZM18.1507 19.85C18.0329 19.3148 17.8517 18.9499 17.4982 18.9175C17.2807 18.8932 16.9726 18.9905 16.8095 19.1284C16.5105 19.3878 16.5196 20.1256 16.8186 20.377C16.9907 20.5229 17.3985 20.6526 17.5344 20.5715C17.7972 20.4175 17.9513 20.1013 18.1507 19.85ZM39.3373 20.8878C39.2086 20.8341 39.0787 20.7828 38.9476 20.7337C38.5762 20.7904 38.2137 20.8878 37.8512 20.904C37.4707 20.9121 37.1715 20.685 37.2079 20.3608C37.235 20.1256 37.4524 19.8418 37.679 19.7201C37.9509 19.5742 38.3225 19.5985 38.6396 19.5256C38.7484 19.5013 38.9386 19.404 38.9295 19.3553C38.9114 19.2256 38.8481 19.0391 38.7393 18.9823C38.3949 18.804 38.0506 18.8121 37.7425 19.0958C37.6428 19.1851 37.5159 19.25 37.2893 19.404C37.4434 18.731 37.824 18.5527 38.6124 18.6175C39.129 18.6581 39.3283 18.8526 39.3283 19.3472C39.3464 19.8256 39.3373 20.312 39.3373 20.8878ZM38.8843 19.7689C38.5489 19.8256 38.2318 19.8581 37.9418 19.9553C37.8059 20.004 37.6247 20.1985 37.6428 20.2958C37.67 20.4337 37.8421 20.604 37.9961 20.6445C38.4765 20.7661 39.138 20.3446 38.8843 19.7689ZM67.6194 19.1689C67.9003 18.6174 68.8609 18.3661 69.3865 18.731C69.5406 18.8364 69.6403 19.0796 69.6584 19.2662C69.6947 19.7851 69.6674 20.2959 69.6674 20.8716C69.5517 20.8276 69.4369 20.7816 69.3232 20.7337C68.8973 20.7985 68.5257 20.8878 68.1631 20.8959C67.8098 20.904 67.5742 20.685 67.5289 20.3689C67.4835 20.0526 67.6558 19.8013 67.982 19.7039C68.29 19.6068 68.6345 19.5904 68.9516 19.5175C69.0694 19.4851 69.2779 19.3635 69.2687 19.3229C69.2234 19.1851 69.142 18.9986 69.006 18.9418C68.6707 18.7878 68.3354 18.8121 68.0636 19.0958C67.9729 19.1851 67.8279 19.2337 67.7101 19.2986C67.6739 19.2662 67.6467 19.2175 67.6194 19.1689ZM69.2234 19.7608C68.8792 19.8256 68.5619 19.85 68.2719 19.9472C68.136 19.9878 67.9548 20.1904 67.9729 20.2877C68.0001 20.4256 68.1722 20.5959 68.3264 20.6364C68.8792 20.7823 69.3051 20.377 69.2234 19.7608ZM64.4568 18.8364C64.6382 18.7554 64.756 18.6905 64.8737 18.65C65.5352 18.431 66.0518 18.7229 66.088 19.3472C66.1152 19.7527 66.1152 20.1499 66.097 20.5553C66.088 20.6607 65.9792 20.758 65.9159 20.8635C65.8433 20.7499 65.7256 20.6445 65.7166 20.531C65.6893 20.1742 65.7074 19.8175 65.7074 19.4607C65.7074 19.1527 65.5897 18.9175 65.2181 18.8932C64.8103 18.8689 64.5294 19.0634 64.4841 19.4283C64.4387 19.8013 64.4749 20.1742 64.4478 20.5472C64.4387 20.6607 64.3209 20.7661 64.2485 20.8716C64.194 20.7661 64.0854 20.6688 64.0854 20.5634C64.0673 19.7446 64.0673 18.9256 64.0854 18.0986C64.0854 17.9931 64.194 17.896 64.2575 17.7986C64.3209 17.896 64.4387 17.985 64.4478 18.0824C64.4749 18.3094 64.4568 18.5446 64.4568 18.8364ZM45.1642 19.7446C45.1732 19.0148 45.6172 18.5932 46.3693 18.6013C47.0763 18.6094 47.5203 19.0472 47.5203 19.7527C47.5203 20.4905 47.0763 20.9202 46.3421 20.9202C45.6082 20.9202 45.1642 20.4743 45.1642 19.7446ZM47.1034 19.7446C47.1034 19.2175 46.7953 18.8689 46.3421 18.8689C45.8891 18.8689 45.581 19.2256 45.572 19.7527C45.572 20.2958 45.8982 20.6688 46.3693 20.6526C46.8225 20.6283 47.1125 20.2796 47.1034 19.7446ZM84.4565 19.7608C84.4474 20.4905 84.0034 20.9202 83.2602 20.9121C82.5353 20.904 82.0913 20.4499 82.1004 19.7201C82.1185 18.9986 82.5715 18.577 83.3238 18.5932C84.0306 18.6094 84.4655 19.0634 84.4565 19.7608ZM82.5082 19.7446C82.4991 20.2635 82.7981 20.6283 83.2512 20.6526C83.7225 20.6688 84.0487 20.2958 84.0487 19.7527C84.0487 19.2337 83.7315 18.877 83.2875 18.8689C82.8343 18.8607 82.5172 19.2175 82.5082 19.7446ZM22.292 18.7878C22.5729 18.7229 22.8357 18.6175 23.0985 18.6013C23.5968 18.577 23.8777 18.8202 23.905 19.2662C23.9322 19.712 23.9231 20.158 23.905 20.604C23.905 20.6931 23.7872 20.7742 23.7237 20.8554C23.6603 20.7742 23.5425 20.6931 23.5334 20.604C23.5153 20.2147 23.5244 19.8256 23.5153 19.4445C23.5063 19.1203 23.3613 18.877 22.9716 18.877C22.6 18.877 22.3282 19.0472 22.301 19.4121C22.2739 19.7851 22.301 20.158 22.2648 20.531C22.2558 20.6445 22.1289 20.7499 22.0563 20.8635C21.993 20.758 21.8751 20.6607 21.8751 20.5553C21.857 20.0202 21.857 19.4851 21.8751 18.9499C21.8751 18.8445 21.9566 18.7391 21.993 18.6338C22.1108 18.6986 22.2194 18.7554 22.292 18.7878ZM9.71403 19.7932C9.70498 20.531 9.26098 20.9364 8.49971 20.9202C7.79291 20.904 7.38512 20.4662 7.39417 19.7446C7.40323 19.0067 7.82912 18.5932 8.59038 18.6013C9.31529 18.6013 9.72308 19.0391 9.71403 19.7932ZM7.79291 19.7608C7.79291 20.4094 8.23691 20.7823 8.78063 20.604C9.19747 20.4662 9.42407 19.9715 9.28814 19.4688C9.18841 19.0958 8.93481 18.8526 8.48161 18.877C8.04667 18.8932 7.79291 19.2337 7.79291 19.7608ZM56.1834 20.1256C56.4009 20.2473 56.5186 20.3282 56.6545 20.3932C56.854 20.4905 57.0623 20.6445 57.2527 20.6283C57.452 20.6121 57.6334 20.4175 57.8236 20.3039C57.6786 20.1823 57.5608 20.0283 57.3887 19.9553C57.153 19.85 56.8721 19.8337 56.6364 19.7365C56.2287 19.5742 56.1291 19.1365 56.41 18.8445C56.8449 18.3905 57.8779 18.577 58.1679 19.2824C57.9324 19.177 57.8055 19.112 57.6696 19.0634C57.4792 18.9905 57.2799 18.877 57.0896 18.8851C56.9356 18.8932 56.7905 19.0634 56.6455 19.1608C56.7633 19.2662 56.863 19.4121 57.008 19.4688C57.2618 19.5742 57.5517 19.6068 57.8145 19.6958C58.2857 19.8662 58.3945 20.3039 58.0683 20.6364C57.742 20.9689 57.298 20.9608 56.863 20.8878C56.4824 20.8311 56.2468 20.6121 56.1834 20.1256ZM10.865 18.6257C11.5264 18.65 11.4087 19.112 11.5627 19.3635C11.7349 19.6634 11.8255 19.9959 11.9977 20.4337C12.1698 20.0121 12.2786 19.6715 12.4507 19.3553C12.5957 19.0958 12.5142 18.6581 13.1485 18.6013C12.8223 19.3635 12.5504 20.0607 12.2333 20.7337C12.1155 20.977 11.8617 20.9364 11.753 20.7012C11.454 20.0526 11.1912 19.3797 10.865 18.6257ZM86.3776 18.5689C86.5497 18.6175 86.6947 18.6581 86.9848 18.7391C86.6947 18.8526 86.5406 18.9094 86.3595 18.9823C86.3595 19.4932 86.3685 20.0121 86.3504 20.5391C86.3414 20.6526 86.2235 20.758 86.1511 20.8716C86.0876 20.7661 85.9879 20.6688 85.9788 20.5634C85.9517 20.223 85.9698 19.8743 85.9698 19.5337C85.9698 19.2337 86.0966 18.8851 85.6798 18.8364C85.7976 18.577 85.9245 18.3661 85.9969 18.1473C86.0967 17.831 86.5225 17.604 86.8579 17.7337C86.9122 17.758 86.9939 17.8553 86.9848 17.8879C86.9575 17.9527 86.876 18.0176 86.8035 18.0419C86.3776 18.1554 86.3776 18.1473 86.3776 18.5689ZM43.6418 18.5689C43.8139 18.6175 43.9589 18.6581 44.1039 18.6986C44.113 18.731 44.113 18.7716 44.122 18.804C43.968 18.8526 43.823 18.9094 43.6236 18.9742C43.6236 19.4932 43.6328 20.0202 43.6145 20.5553C43.6145 20.6607 43.5059 20.7661 43.4514 20.8635C43.379 20.758 43.2612 20.6526 43.2521 20.5391C43.225 20.2147 43.234 19.8824 43.2431 19.558C43.2612 19.2337 43.2974 18.9175 42.9439 18.8202C43.0617 18.577 43.1796 18.3661 43.2521 18.1473C43.3517 17.831 43.7687 17.604 44.1039 17.7337C44.1673 17.758 44.2489 17.8472 44.2308 17.8796C44.2036 17.9446 44.122 18.0338 44.0587 18.0338C43.6418 18.0338 43.5964 18.2526 43.6418 18.5689ZM41.3853 18.5527C41.5394 18.6094 41.6843 18.6581 41.8657 18.7229C41.6662 18.8689 41.4034 18.9661 41.3944 19.0877C41.3491 19.5175 41.3853 19.9472 41.4034 20.377C41.4034 20.4418 41.5213 20.4986 41.5848 20.5634C41.6662 20.6445 41.7388 20.7256 41.8203 20.8066C41.7024 20.8392 41.5848 20.8959 41.4669 20.8959C41.1406 20.8797 41.0047 20.685 40.9956 20.4175C40.9866 20.0769 41.0137 19.7284 40.9775 19.3878C40.9594 19.1689 40.8507 18.958 40.7692 18.6905L41.2132 17.896C41.2584 17.9122 41.2946 17.9284 41.3401 17.9446C41.3491 18.1473 41.3672 18.3499 41.3853 18.5527ZM71.0902 18.7067C71.2262 18.4634 71.3802 18.1797 71.5342 17.9041C71.5795 17.9203 71.6159 17.9365 71.6611 17.9527L71.7154 18.5608C71.8695 18.6175 72.0144 18.6662 72.1867 18.731C71.9873 18.877 71.7245 18.9823 71.7154 19.0958C71.6792 19.5418 71.7154 19.9878 71.7426 20.4337C71.7426 20.4824 71.8514 20.531 71.9149 20.5796C71.9963 20.6445 72.0779 20.7175 72.1596 20.7823C72.0327 20.8228 71.9058 20.904 71.788 20.904C71.4617 20.8959 71.3257 20.6931 71.3167 20.4256C71.3076 20.085 71.3348 19.7365 71.2986 19.3959C71.2714 19.177 71.1717 18.9661 71.0902 18.7067ZM61.7384 18.6905C61.8651 18.4634 62.0193 18.1716 62.2277 17.7824C62.4271 18.204 62.1098 18.6905 62.7623 18.7878C62.6264 18.8526 62.4995 18.9094 62.3364 18.9905C62.3364 19.3959 62.3183 19.8094 62.3455 20.223C62.3545 20.3446 62.5086 20.4662 62.5992 20.5796C62.6535 20.6526 62.708 20.7256 62.7533 20.8066C62.6717 20.8392 62.5902 20.904 62.5086 20.904C62.1824 20.9121 61.9649 20.7985 61.9558 20.4662C61.9558 20.1256 61.9648 19.777 61.9377 19.4364C61.9196 19.2094 61.8199 18.9823 61.7384 18.6905ZM89.8936 18.6905C90.0115 18.4715 90.1564 18.1797 90.3105 17.8879C90.3557 17.9041 90.4011 17.9122 90.4464 17.9284C90.4555 18.1311 90.4736 18.3256 90.4826 18.5527C90.6095 18.6013 90.7454 18.6581 90.972 18.7473C90.256 18.958 90.5098 19.4283 90.4645 19.8094C90.4192 20.223 90.4192 20.6121 91.1532 20.7418C90.3557 21.0013 90.102 20.8635 90.0839 20.3446C90.0748 20.0769 90.102 19.8094 90.0748 19.5418C90.0567 19.2743 89.966 18.9986 89.8936 18.6905ZM50.257 18.7797C50.1482 18.8364 50.0394 18.9499 49.9306 18.9499C49.5138 18.9337 49.3598 19.1446 49.3326 19.4688C49.3054 19.8418 49.3235 20.2147 49.2964 20.5796C49.2873 20.685 49.1695 20.7742 49.097 20.8716C49.0336 20.7742 48.9067 20.6688 48.9067 20.5715C48.8886 20.0202 48.8886 19.4688 48.9067 18.9256C48.9067 18.8283 49.0064 18.731 49.0607 18.6419C49.1514 18.7067 49.2419 18.7635 49.251 18.7716C49.5566 18.7142 49.8617 18.6547 50.1663 18.5932C50.2025 18.65 50.2298 18.7148 50.257 18.7797ZM5.4278 18.7635C5.68155 18.7067 5.908 18.6419 6.1346 18.6175C6.18906 18.6094 6.26148 18.7391 6.32484 18.804C6.24337 18.8526 6.16176 18.958 6.08934 18.9499C5.63614 18.9094 5.49116 19.1527 5.45495 19.4769C5.41874 19.85 5.43685 20.223 5.40969 20.5878C5.40064 20.685 5.30092 20.7661 5.24661 20.8554C5.17404 20.7661 5.04716 20.6688 5.03811 20.5796C5.02001 20.0283 5.02001 19.4769 5.03811 18.9256C5.03811 18.8202 5.11973 18.7229 5.16499 18.6257C5.28281 18.6905 5.39159 18.7473 5.4278 18.7635ZM79.7896 18.5122C79.9145 18.5974 80.0384 18.6839 80.1612 18.7716C80.4149 18.7148 80.6323 18.65 80.8589 18.6257C80.9132 18.6175 80.9948 18.7473 81.0582 18.8202C80.9948 18.8689 80.9223 18.9742 80.868 18.9661C80.2426 18.9013 80.1974 19.2905 80.1702 19.6715C80.1521 19.9959 80.1702 20.3282 80.1521 20.6526C80.1521 20.7256 80.0433 20.7985 79.989 20.8797C79.9165 20.8147 79.7896 20.758 79.7896 20.6931C79.7805 20.004 79.7896 19.331 79.7896 18.5122ZM35.7579 19.3553C35.7579 19.7689 35.7669 20.1904 35.7488 20.604C35.7488 20.6931 35.631 20.7742 35.5677 20.8635C35.5041 20.7823 35.3773 20.7012 35.3773 20.6202C35.3592 19.7689 35.3592 18.9175 35.3773 18.0743C35.3773 17.9769 35.5132 17.8879 35.5767 17.7986C35.631 17.8879 35.7398 17.9769 35.7398 18.0662C35.7669 18.4958 35.7579 18.9256 35.7579 19.3553ZM20.3256 19.7446C20.3256 20.0445 20.3437 20.3363 20.3165 20.6364C20.3073 20.7175 20.1806 20.7904 20.108 20.8635C20.0537 20.7904 19.954 20.7175 19.945 20.6364C19.9359 20.0445 19.9269 19.4526 19.945 18.8526C19.945 18.7716 20.0718 18.6986 20.1443 18.6257C20.1987 18.6986 20.2983 18.7716 20.3073 18.8526C20.3346 19.1527 20.3256 19.4526 20.3256 19.7446ZM14.8158 19.7284C14.8158 20.0364 14.8249 20.3527 14.8068 20.6607C14.7977 20.7337 14.689 20.7985 14.6256 20.8635C14.5622 20.7985 14.4444 20.7256 14.4444 20.6607C14.4263 20.0526 14.4263 19.4445 14.4444 18.8364C14.4444 18.7635 14.5622 18.6986 14.6256 18.6338C14.689 18.6986 14.7977 18.7635 14.8068 18.8364C14.8249 19.1365 14.8158 19.4283 14.8158 19.7284ZM88.4618 19.8013C88.4618 20.0688 88.48 20.3363 88.4527 20.604C88.4437 20.6931 88.3441 20.7823 88.2896 20.8635C88.2172 20.7823 88.0903 20.7094 88.0903 20.6283C88.0722 20.0364 88.0722 19.4445 88.0903 18.8526C88.0903 18.7797 88.199 18.7067 88.2625 18.6338C88.3349 18.7148 88.4527 18.7878 88.4618 18.8689C88.48 19.177 88.4618 19.4932 88.4618 19.8013Z" fill="#32448C"/>
</svg>
