<svg width="91" height="44" viewBox="0 0 91 44" fill="none" xmlns="http://www.w3.org/2000/svg">
<path fill-rule="evenodd" clip-rule="evenodd" d="M90.5578 13.6112C90.5304 21.0611 83.9256 26.9546 75.7895 27.0193C67.4812 27.0843 60.7949 21.1422 60.6409 13.9598C60.4868 6.63963 66.9829 0.340846 75.3727 0.276053C83.8169 0.203026 90.5578 6.17758 90.5578 13.6112ZM76.0613 18.0942C76.0613 19.7884 76.0522 21.4827 76.0705 23.1769C76.0795 23.9795 76.605 24.2794 77.3569 23.8903C80.1083 22.4894 82.8536 21.0788 85.5926 19.6586C86.3628 19.2615 86.7523 18.6616 86.7523 17.8266C86.7342 14.9083 86.7433 11.9818 86.7433 9.06355C86.7433 7.9205 86.2631 7.64486 85.1216 8.14741C82.4942 9.30666 79.8757 10.474 77.2483 11.6252C76.4328 11.9818 76.0522 12.5169 76.0613 13.3276C76.0795 14.9164 76.0613 16.5053 76.0613 18.0942ZM75.1101 18.1671C75.1101 16.5377 75.0829 14.9083 75.1191 13.2789C75.1372 12.4683 74.7475 11.9737 73.9685 11.6333C71.2684 10.4578 68.5866 9.26616 65.8958 8.08262C64.8628 7.62867 64.428 7.86367 64.428 8.8851C64.419 11.6818 64.4461 14.4705 64.4099 17.2672C64.3918 18.5157 64.9626 19.3831 66.1948 19.9911C68.7135 21.2394 71.196 22.5527 73.6966 23.8336C74.5846 24.2875 75.101 24.0362 75.1101 23.1283C75.1191 21.4746 75.1101 19.8209 75.1101 18.1671ZM75.6627 11.1469C75.9888 11.0415 76.3331 10.9604 76.6502 10.8225C79.4409 9.62342 82.2255 8.41287 85.0038 7.19091C85.2302 7.09359 85.3933 6.86668 85.5836 6.70456C85.3843 6.57484 85.2031 6.39639 84.9857 6.3073C82.4487 5.3832 79.9029 4.48325 77.3659 3.54295C76.2062 3.11329 75.0829 3.1052 73.9322 3.53485C71.4406 4.44276 68.94 5.33447 66.4484 6.25871C66.2039 6.3478 66.0408 6.59914 65.8323 6.77745C66.0227 6.93957 66.1856 7.15042 66.4213 7.2557C69.1756 8.47178 71.9389 9.67152 74.7023 10.8632C75.0013 10.9848 75.3274 11.0496 75.6627 11.1469Z" fill="#32448C"/>
<path fill-rule="evenodd" clip-rule="evenodd" d="M41.4146 18.6539C42.4203 17.8027 43.3354 17.0164 44.2504 16.2381C49.5506 11.731 54.8419 7.21559 60.1512 2.72465C60.6223 2.32739 61.1387 1.90583 61.7275 1.69512C62.543 1.39505 63.5034 1.80851 63.9202 2.47331C64.355 3.15417 64.21 4.02968 63.5305 4.62145C61.9179 6.01585 60.2871 7.4101 58.6653 8.79639L48.8259 17.2352C46.2981 19.3997 43.7793 21.5804 41.2244 23.7204C40.8256 24.0528 40.3183 24.4014 39.8109 24.4905C38.4248 24.7338 37.4915 24.0204 37.5005 22.7476C37.5277 17.3892 37.5822 12.0309 37.6274 6.67241C37.6365 5.44837 37.6546 4.21623 37.6908 2.99206C37.7181 2.31119 38.1438 1.83281 38.8414 1.6059C39.5211 1.38695 40.2006 1.43568 40.7804 1.85724C41.3422 2.26246 41.478 2.82184 41.478 3.44601C41.4327 8.35864 41.4055 13.2792 41.3693 18.1919C41.3693 18.3053 41.3965 18.4188 41.4146 18.6539ZM6.96769 18.6782C9.75824 16.2949 12.4581 13.9926 15.1582 11.6822C18.7913 8.58555 22.4244 5.49696 26.0485 2.39218C26.6555 1.87344 27.3168 1.48428 28.1958 1.64639C28.9115 1.77611 29.446 2.14098 29.6636 2.79754C29.89 3.51094 29.6907 4.13511 29.0927 4.64589C27.7608 5.7888 26.429 6.92375 25.0881 8.0668C21.9985 10.7176 18.8999 13.3685 15.8105 16.0193C12.739 18.6539 9.65852 21.2803 6.58706 23.923C5.8804 24.5311 5.07403 24.7095 4.17713 24.3933C3.26199 24.069 3.01743 23.3557 3.02649 22.5288C3.0808 16.4489 3.12606 10.3771 3.18052 4.29722C3.18052 3.85137 3.20767 3.40551 3.25293 2.96776C3.36171 2.06795 4.05026 1.51667 5.04687 1.50048C6.12511 1.47618 6.86797 1.97063 6.97674 2.88677C7.05821 3.55143 6.98579 4.23243 6.98579 4.91329C6.97674 8.61808 6.96769 12.3308 6.96769 16.0355V18.6782Z" fill="#32448C"/>
<path fill-rule="evenodd" clip-rule="evenodd" d="M72.0928 39.2446V32.0136C72.0928 31.1057 72.0928 30.1897 72.1019 29.2818C72.1109 28.4629 72.6002 27.9766 73.3975 27.9847C74.1767 27.9928 74.6569 28.4953 74.6569 29.306C74.6298 33.5458 74.5845 37.7773 74.5572 42.017C74.5572 42.6169 74.4122 43.1115 73.7146 43.3384C73.0351 43.5573 72.5278 43.3141 72.0657 42.8925C68.2151 39.3662 64.3644 35.8317 60.5139 32.3054C60.3961 32.2001 60.2784 32.1028 60.0337 31.9083C60.0065 32.2325 59.9794 32.4432 59.9794 32.6541L59.8706 41.9927C59.8616 42.8277 59.4085 43.306 58.6385 43.3141C57.805 43.3222 57.3248 42.8439 57.3338 41.9684C57.37 37.672 57.4062 33.3675 57.4878 29.0709C57.4969 28.7224 57.805 28.2765 58.1221 28.0495C58.584 27.7252 59.173 27.8388 59.6261 28.1711C59.9884 28.4386 60.3056 28.7548 60.6317 29.0628L71.4859 39.0176C71.5945 39.1231 71.7214 39.2041 71.8392 39.3014C71.9297 39.2771 72.0113 39.2609 72.0928 39.2446ZM42.937 33.8457C44.9393 32.0542 46.8601 30.3275 48.79 28.6008C48.9531 28.4548 49.1252 28.3008 49.3064 28.163C49.7866 27.7983 50.3121 27.7171 50.892 27.9442C51.4537 28.163 51.5987 28.6008 51.5987 29.0953C51.6077 29.9464 51.6077 30.7895 51.5987 31.6407C51.5625 35.0698 51.5171 38.5069 51.4718 41.936C51.4627 42.8358 50.9554 43.2817 50.0585 43.2168C49.3064 43.1601 48.9259 42.7304 48.9259 41.9441C48.935 38.8312 48.9531 35.7101 48.9622 32.5972V31.811C48.6269 32.0947 48.4186 32.273 48.2101 32.4513C46.8239 33.6917 45.4559 34.9562 44.0515 36.1804C43.3267 36.8127 42.5294 36.7803 41.8136 36.1317C40.4288 34.8845 39.0576 33.6252 37.7002 32.3541C37.4919 32.1595 37.365 31.9002 37.2019 31.665L36.8486 31.8353V33.643L36.8214 41.7171C36.8214 42.2764 36.6855 42.7871 36.0422 43.0303C35.1272 43.3708 34.2575 42.8439 34.2483 41.9117C34.2392 40.4687 34.2756 39.0338 34.2846 37.5909C34.3027 34.8347 34.3027 32.0785 34.3118 29.3222C34.3118 29.1925 34.3118 29.0709 34.3208 28.9412C34.3661 28.39 34.6017 27.9604 35.2177 27.7576C35.8067 27.5712 36.296 27.7333 36.7036 28.1144C38.1804 29.4601 39.6391 30.8138 41.1069 32.1676C41.6959 32.727 42.2938 33.262 42.937 33.8457ZM29.9628 38.4259C27.725 38.4259 25.5506 38.4745 23.376 38.4016C22.4157 38.3692 21.7453 38.6123 21.093 39.2284C19.8788 40.3552 18.5832 41.4171 17.3058 42.4872C17.0701 42.6818 16.7802 42.8682 16.4723 42.9412C15.8561 43.0872 15.2762 42.9817 14.941 42.4224C14.6239 41.8873 14.7598 41.3928 15.2309 40.9794C16.2276 40.112 17.2423 39.2446 18.2479 38.3854C22.1439 35.0455 26.0398 31.7136 29.9356 28.3738C30.1084 28.2274 30.2899 28.0894 30.4793 27.9604C30.9322 27.6443 31.4215 27.6117 31.9471 27.8226C32.4726 28.0333 32.6447 28.4467 32.6447 28.9088C32.6085 33.2052 32.5722 37.5099 32.5178 41.8063C32.5088 42.6656 32.0648 43.0872 31.2313 43.0789C30.3887 43.0789 29.9537 42.6494 29.9447 41.7982C29.9628 40.7282 29.9628 39.6499 29.9628 38.4259ZM29.972 36.2128V31.665C28.178 33.2052 26.5018 34.6563 24.6988 36.2128H29.972ZM90.467 38.2395C90.467 38.9772 90.5303 39.7229 90.4398 40.4606C90.3946 40.8497 90.177 41.3036 89.8599 41.555C87.1691 43.687 84.0614 44.1977 80.7454 43.0789C77.4565 41.9684 75.6083 39.7229 75.2095 36.5856C74.675 32.3703 77.9729 28.5522 82.7658 28.0009C85.4568 27.6928 87.8757 28.3413 89.9053 30.0113C90.6753 30.6436 90.7841 31.3003 90.2132 31.8272C89.5973 32.4027 88.8723 32.3703 88.0933 31.7379C86.3355 30.3113 84.2971 29.8492 82.0501 30.4977C79.785 31.1544 78.3534 32.5729 77.8461 34.6725C77.3115 36.8775 78.3625 39.0581 80.5461 40.4038C82.4849 41.5955 85.2211 41.6118 87.2505 40.4606C87.7126 40.2012 87.9483 39.9175 87.9302 39.3986C87.8938 38.5718 87.9483 37.7449 87.9845 36.9262C88.0117 36.1723 88.4557 35.7912 89.2711 35.7912C90.0049 35.7912 90.5032 36.2128 90.5394 36.9019C90.5667 37.3478 90.5485 37.7936 90.5485 38.2395H90.467ZM15.3759 38.1907C15.3759 38.5313 15.3307 38.8717 15.385 39.2041C15.5662 40.266 14.9862 40.9389 14.0893 41.5469C8.87966 45.0975 1.07888 42.2603 0.154674 36.4641C-0.542926 32.0947 2.48328 28.2684 7.34853 27.5226C10.1843 27.0849 12.7485 27.7659 14.8867 29.5493C15.5119 30.068 15.6024 30.8219 15.1222 31.3084C14.6058 31.8272 13.6998 31.811 13.0384 31.2678C11.1629 29.7114 8.98844 29.2818 6.60567 30.1004C4.15034 30.9435 2.74594 32.646 2.61001 34.9805C2.40166 38.7015 6.12547 41.2793 9.73145 40.7363C10.0303 40.6875 10.3384 40.647 10.6283 40.5578C12.6487 39.9661 12.8118 39.7553 12.8209 37.8989C12.8209 37.3883 12.8118 36.8775 12.839 36.3749C12.8844 35.6858 13.3827 35.2481 14.0984 35.2481C14.8233 35.24 15.3669 35.7184 15.4031 36.4154C15.4212 36.7073 15.3759 37.0072 15.3759 37.3071C15.3759 37.5909 15.385 37.8908 15.3759 38.1907C15.3759 38.1907 15.385 38.1907 15.3759 38.1907Z" fill="#32448C"/>
<path fill-rule="evenodd" clip-rule="evenodd" d="M35.3453 12.6869C35.3453 15.1432 35.3544 17.5996 35.3453 20.0557C35.3453 21.0529 35.3001 22.0419 35.282 23.0389C35.2639 23.9955 34.5299 24.6927 33.488 24.7413C32.4733 24.7899 31.4948 24.0684 31.4857 23.1362C31.4586 20.8665 31.5129 18.6047 31.531 16.3349C31.5491 14.7865 31.5763 13.2463 31.5853 11.6979C31.6125 8.99037 31.676 6.27475 31.6488 3.5671C31.6307 2.22953 32.6273 1.65396 33.5785 1.63776C34.7201 1.61346 35.4813 2.39165 35.4813 3.59139C35.4722 6.17743 35.436 8.76346 35.4179 11.3413V12.6788C35.3906 12.6869 35.3725 12.6869 35.3453 12.6869Z" fill="#32448C"/>
<path fill-rule="evenodd" clip-rule="evenodd" d="M55.8841 35.6211C55.8841 37.7611 55.8932 39.8932 55.8841 42.0332C55.8841 42.8277 55.4039 43.2898 54.6338 43.2979C53.8456 43.306 53.3291 42.8116 53.3381 42.0008C53.3745 37.6801 53.4197 33.3675 53.465 29.0466C53.4741 28.3251 53.9724 27.8631 54.7154 27.8631C55.5127 27.8631 56.002 28.3089 56.011 29.0871C56.0201 31.2678 56.011 33.4485 56.011 35.6292C55.9746 35.6211 55.9294 35.6211 55.8841 35.6211ZM85.4839 11.561C85.3208 11.9986 85.1849 12.5418 84.904 13.0119C84.768 13.239 84.3423 13.4659 84.0614 13.4416C83.7986 13.4254 83.4543 13.1255 83.3457 12.8741C82.9833 12.0392 83.101 11.1961 83.6264 10.4503C83.7986 10.199 84.2154 9.92336 84.4963 9.9478C84.768 9.97209 85.0671 10.3206 85.2392 10.5882C85.4023 10.8395 85.3932 11.1637 85.4839 11.561ZM80.2742 19.5133C80.1111 19.9187 79.9752 20.4862 79.6671 20.9644C79.2595 21.5968 78.4531 21.4914 78.1541 20.8104C77.7736 19.9268 77.9277 19.0513 78.4803 18.2731C78.6434 18.0462 79.0602 17.8111 79.3229 17.8354C79.5857 17.8596 79.8847 18.1758 80.0297 18.4352C80.1837 18.6947 80.1837 19.0351 80.2742 19.5133ZM83.2007 15.5088C83.0014 16.0438 82.8655 16.6032 82.5846 17.0977C82.4577 17.3247 82.0229 17.5597 81.751 17.5435C81.4973 17.5273 81.162 17.2112 81.0444 16.9679C80.7001 16.206 80.7816 15.4116 81.2256 14.7144C81.4158 14.4063 81.8779 14.0253 82.186 14.0496C82.4848 14.074 82.7748 14.5442 82.9924 14.8603C83.11 15.0224 83.0648 15.2737 83.0919 15.4764C83.1281 15.4845 83.1645 15.5007 83.2007 15.5088ZM73.3975 20.1295C73.3341 20.397 73.3341 20.697 73.1982 20.9239C73.0441 21.1753 72.7724 21.5319 72.5277 21.5481C72.2287 21.5643 71.7757 21.3536 71.6126 21.1103C71.069 20.3241 70.9331 19.4486 71.3047 18.5568C71.5854 17.892 72.3737 17.7787 72.7815 18.3947C73.1167 18.9054 73.2707 19.5133 73.4972 20.0727C73.47 20.097 73.4338 20.1134 73.3975 20.1295ZM70.9331 14.0577C71.0962 13.1012 71.4133 12.5661 71.957 12.5418C72.4734 12.5094 73.0623 13.0364 73.1801 13.8389C73.2615 14.4063 73.2434 15.0305 73.0713 15.5737C72.8449 16.279 72.0566 16.36 71.6399 15.7358C71.3047 15.225 71.1597 14.617 70.9331 14.0577ZM68.3691 12.404C68.2513 13.239 67.9251 13.7903 67.4449 13.8389C66.9014 13.8956 66.4121 13.4659 66.2671 12.631C66.1765 12.1121 66.1947 11.5366 66.3395 11.0259C66.5209 10.3937 67.2909 10.2882 67.6715 10.8476C68.0068 11.3178 68.1516 11.8852 68.3691 12.404ZM68.3691 17.8111C68.2513 18.2488 68.2151 18.6135 68.052 18.9298C67.7983 19.4243 67.2004 19.4567 66.7926 19.0432C66.2309 18.484 66.0407 17.0734 66.4302 16.4086C66.7564 15.8493 67.454 15.8168 67.8164 16.4005C68.0973 16.8382 68.206 17.3652 68.3691 17.8111ZM75.7804 8.11565C75.1009 7.91304 74.4576 7.81571 73.9139 7.55627C73.0804 7.14295 73.0622 6.31604 73.8053 5.77286C74.7384 5.0839 76.8132 5.10009 77.7374 5.79715C78.4079 6.29984 78.4169 7.11042 77.6649 7.49958C77.1032 7.79952 76.4237 7.92114 75.7804 8.11565Z" fill="#32448C"/>
</svg>
