<svg width="51" height="51" viewBox="0 0 51 51" fill="none" xmlns="http://www.w3.org/2000/svg">
<g clip-path="url(#clip0)">
<path d="M49.6877 13.263C49.4107 12.4614 48.8379 11.8155 48.0753 11.4443L25.2005 0.319549C23.6258 -0.4462 21.7223 0.211768 20.9566 1.78607L19.8885 3.98098L13.6399 2.75843C11.917 2.42147 10.2404 3.54869 9.90301 5.27163L9.10925 9.32527H5.17545C3.4245 9.32527 2 10.7498 2 12.5011V47.8244C2 49.5757 3.4245 51.0002 5.17545 51.0002H30.6125C32.3634 51.0002 33.7883 49.5757 33.7883 47.8244V47.8174C33.9117 47.7252 34.0159 47.603 34.0879 47.4547L49.5418 15.6894C49.913 14.9268 49.9648 14.0649 49.6877 13.263ZM22.748 2.65765C23.0332 2.07089 23.7429 1.82614 24.3293 2.11135L33.7521 6.69418L21.9114 4.37708L22.748 2.65765ZM11.8579 5.6545C11.9843 5.00937 12.6115 4.5872 13.2574 4.71366L20.2406 6.08017C20.2531 6.0829 20.2655 6.08523 20.278 6.08757L38.203 9.59492C38.5159 9.656 38.7859 9.83538 38.9633 10.0996C39.1412 10.3638 39.2054 10.6813 39.1443 10.9937L33.7879 38.356V12.5011C33.7879 10.7502 32.3634 9.32527 30.6125 9.32527H11.1392L11.8579 5.6545ZM31.7961 47.8248C31.7961 48.4773 31.265 49.008 30.6125 49.008H5.17545C4.52293 49.008 3.99219 48.4769 3.99219 47.8248V12.5011C3.99219 11.8486 4.52293 11.3179 5.17545 11.3179H30.6125C31.265 11.3179 31.7961 11.8486 31.7961 12.5011V47.8248ZM47.7504 14.8178L35.4945 40.0101L41.0991 11.3766C41.1711 11.0085 41.1781 10.6385 41.1228 10.2786L47.2041 13.2361C47.4881 13.3742 47.7014 13.6151 47.8049 13.9139C47.908 14.2124 47.8889 14.5334 47.7504 14.8178Z" fill="white"/>
<path d="M17.3492 36.7816C17.1534 36.7816 16.9577 36.724 16.7885 36.6088C16.7083 36.5543 14.8083 35.2536 12.88 33.4388C10.1598 30.8778 8.7804 28.607 8.7804 26.6895C8.7804 23.9257 11.029 21.6775 13.7932 21.6775C15.1904 21.6775 16.483 22.2444 17.4118 23.2168C18.3371 22.286 19.6048 21.744 20.9627 21.744C23.7269 21.744 25.9755 23.9926 25.9755 26.756C25.9755 28.6486 24.5849 30.9011 21.8425 33.4513C19.9009 35.2567 17.9877 36.5559 17.9075 36.6104C17.7386 36.7248 17.5441 36.7816 17.3492 36.7816ZM13.7928 23.6693C12.1274 23.6693 10.7726 25.0241 10.7726 26.6891C10.7726 29.0109 14.5982 32.5781 17.3515 34.5695C20.1254 32.5785 23.9833 29.0276 23.9833 26.756C23.9833 25.0911 22.6281 23.7362 20.9627 23.7362C19.8297 23.7362 18.8017 24.3623 18.2795 25.3701C18.1067 25.7035 17.7589 25.9136 17.3857 25.9078C17.0099 25.9043 16.6686 25.6903 16.5021 25.3533C15.9881 24.3148 14.9504 23.6693 13.7928 23.6693Z" fill="white"/>
<path d="M6.49097 17.0234C5.94078 17.0234 5.49487 16.5775 5.49487 16.0273V14.5273C5.49487 13.9772 5.94078 13.5312 6.49097 13.5312C7.04077 13.5312 7.48707 13.9772 7.48707 14.5273V16.0273C7.48707 16.5775 7.04077 17.0234 6.49097 17.0234Z" fill="white"/>
<path d="M28.4848 46.5549C27.9346 46.5549 27.4886 46.109 27.4886 45.5588V44.0588C27.4886 43.5087 27.9346 43.0627 28.4848 43.0627C29.0346 43.0627 29.4809 43.5087 29.4809 44.0588V45.5588C29.4809 46.109 29.0346 46.5549 28.4848 46.5549Z" fill="white"/>
<path d="M25.2106 40.7835C25.146 40.7835 25.081 40.7765 25.0164 40.7636C24.9526 40.7508 24.89 40.7317 24.8304 40.7068C24.7705 40.6819 24.7117 40.6512 24.658 40.6154C24.6032 40.5792 24.5522 40.5375 24.5067 40.4916C24.4608 40.4457 24.4188 40.3951 24.383 40.3403C24.3472 40.2866 24.3164 40.2286 24.2915 40.1679C24.2666 40.108 24.2476 40.0453 24.2347 39.9815C24.2215 39.9181 24.2145 39.8523 24.2145 39.7874C24.2145 39.7228 24.2215 39.657 24.2347 39.592C24.2476 39.5294 24.2666 39.4667 24.2915 39.406C24.3164 39.3461 24.3472 39.2885 24.383 39.2344C24.4188 39.18 24.4608 39.129 24.5067 39.0831C24.5522 39.0372 24.6032 38.9955 24.658 38.9586C24.7117 38.9228 24.7705 38.8928 24.8304 38.8679C24.89 38.843 24.9526 38.8232 25.0164 38.8103C25.1452 38.7843 25.2775 38.7843 25.4059 38.8103C25.4697 38.8232 25.5324 38.843 25.5923 38.8679C25.6518 38.8928 25.7098 38.9228 25.7646 38.9586C25.8183 38.9955 25.8689 39.0372 25.916 39.0831C25.9615 39.129 26.0024 39.18 26.0393 39.2344C26.0751 39.2885 26.1063 39.3461 26.1312 39.406C26.1561 39.4667 26.1748 39.5294 26.188 39.592C26.2008 39.657 26.2067 39.7228 26.2067 39.7874C26.2067 39.8523 26.2008 39.9181 26.188 39.9815C26.1748 40.0453 26.1561 40.108 26.1312 40.1679C26.1063 40.2286 26.0751 40.2866 26.0393 40.3403C26.0024 40.3951 25.9615 40.4457 25.916 40.4916C25.8689 40.5375 25.8183 40.5792 25.7646 40.6154C25.7098 40.6512 25.6518 40.6819 25.5923 40.7068C25.5324 40.7317 25.4697 40.7508 25.4059 40.7636C25.3413 40.7765 25.2763 40.7835 25.2106 40.7835Z" fill="white"/>
<path d="M21.4106 40.7835H9.54456C8.99437 40.7835 8.54846 40.3376 8.54846 39.7874C8.54846 39.2372 8.99437 38.7913 9.54456 38.7913H21.4106C21.9607 38.7913 22.4067 39.2372 22.4067 39.7874C22.4067 40.3376 21.9607 40.7835 21.4106 40.7835Z" fill="white"/>
</g>
<defs>
<clipPath id="clip0">
<rect width="51" height="51" fill="white"/>
</clipPath>
</defs>
</svg>
